{
date = "2013-05-14 12:44:43 +0000";
familyName = "Slenderman";
featurePrefixes = (
{
automatic = 1;
code = "languagesystem DFLT dflt;\012languagesystem latn dflt;\012";
name = Languagesystems;
}
);
fontMaster = (
{
ascender = 750;
capHeight = 500;
descender = "-200";
id = "204CD004-05F3-49D2-8673-0D9320CD8B89";
xHeight = 250;
}
);
glyphs = (
{
glyphname = A;
lastChange = "2013-05-16 03:37:37 +0000";
layers = (
{
anchors = (
{
name = ogonek;
position = "{270, 10}";
},
{
name = top;
position = "{150, 500}";
}
);
layerId = "204CD004-05F3-49D2-8673-0D9320CD8B89";
name = Regular;
paths = (
{
closed = 1;
nodes = (
"242.737 -129 OFFCURVE",
"242.512 -129 OFFCURVE",
"242.289 -129 CURVE SMOOTH",
"238.663 -129 OFFCURVE",
"236.03 -126 OFFCURVE",
"236.399 -122 CURVE SMOOTH",
"239.117 -95 OFFCURVE",
"234.299 -41 OFFCURVE",
"230.789 -1 CURVE SMOOTH",
"229.364 15.6582 OFFCURVE",
"228.123 29.7031 OFFCURVE",
"227.511 40.0996 CURVE SMOOTH",
"226.496 57.0488 OFFCURVE",
"225.318 74.0215 OFFCURVE",
"224.133 91.0039 CURVE SMOOTH",
"220.073 149.264 OFFCURVE",
"215.883 209.498 OFFCURVE",
"219.01 268.551 CURVE SMOOTH",
"223.343 349.98 OFFCURVE",
"216.115 425.16 OFFCURVE",
"209.132 497.867 CURVE SMOOTH",
"202.872 562.934 OFFCURVE",
"196.398 630.212 OFFCURVE",
"197.931 702.861 CURVE SMOOTH",
"198.415 725.578 OFFCURVE",
"197.24 749.396 OFFCURVE",
"179.204 770.91 CURVE",
"147.731 708.373 OFFCURVE",
"136.928 642.749 OFFCURVE",
"130.018 580.934 CURVE SMOOTH",
"125.613 541.48 OFFCURVE",
"119.759 505.464 OFFCURVE",
"114.095 470.635 CURVE SMOOTH",
"103.907 407.986 OFFCURVE",
"94.2793 348.809 OFFCURVE",
"94.1802 277.56 CURVE SMOOTH",
"94.1758 274.484 LINE SMOOTH",
"94.0913 212.721 OFFCURVE",
"94.0063 148.855 OFFCURVE",
"83.5859 85.6426 CURVE SMOOTH",
"79.5278 61.0918 OFFCURVE",
"77.417 34.5449 OFFCURVE",
"75.1875 6.4375 CURVE SMOOTH",
"71.9316 -34 OFFCURVE",
"68.5737 -77 OFFCURVE",
"58.7163 -114 CURVE SMOOTH",
"57.7827 -117 OFFCURVE",
"54.1655 -119 OFFCURVE",
"50.6509 -118 CURVE SMOOTH",
"47.1372 -117 OFFCURVE",
"45.0474 -114 OFFCURVE",
"45.9932 -110 CURVE SMOOTH",
"55.5386 -74 OFFCURVE",
"58.8491 -33 OFFCURVE",
"62.0537 7.48438 CURVE SMOOTH",
"64.3052 35.873 OFFCURVE",
"66.4346 62.6953 OFFCURVE",
"70.5845 87.7852 CURVE SMOOTH",
"80.833 149.939 OFFCURVE",
"80.9204 213.264 OFFCURVE",
"81.0015 274.502 CURVE SMOOTH",
"81.0049 277.578 LINE SMOOTH",
"81.106 349.885 OFFCURVE",
"90.8135 409.56 OFFCURVE",
"101.09 472.75 CURVE SMOOTH",
"106.726 507.425 OFFCURVE",
"112.553 543.273 OFFCURVE",
"116.924 582.396 CURVE SMOOTH",
"124.28 648.231 OFFCURVE",
"136.02 718.383 OFFCURVE",
"171.848 785.326 CURVE SMOOTH",
"172.823 787.151 OFFCURVE",
"174.599 788.406 OFFCURVE",
"176.639 788.726 CURVE SMOOTH",
"178.689 789.049 OFFCURVE",
"180.763 788.383 OFFCURVE",
"182.24 786.949 CURVE SMOOTH",
"209.955 760.1 OFFCURVE",
"211.671 729.321 OFFCURVE",
"211.105 702.583 CURVE SMOOTH",
"209.593 630.704 OFFCURVE",
"216.019 563.813 OFFCURVE",
"222.243 499.125 CURVE SMOOTH",
"229.28 425.941 OFFCURVE",
"236.552 350.26 OFFCURVE",
"232.169 267.852 CURVE SMOOTH",
"229.08 209.604 OFFCURVE",
"233.244 149.777 OFFCURVE",
"237.279 91.9199 CURVE SMOOTH",
"238.466 74.8965 OFFCURVE",
"239.648 57.8789 OFFCURVE",
"240.66 40.8867 CURVE SMOOTH",
"241.269 30.6699 OFFCURVE",
"242.493 16.7148 OFFCURVE",
"243.915 0.552734 CURVE SMOOTH",
"247.673 -42 OFFCURVE",
"252.348 -95 OFFCURVE",
"249.507 -123 CURVE SMOOTH",
"249.164 -127 OFFCURVE",
"246.295 -129 OFFCURVE",
"242.964 -129 CURVE SMOOTH"
);
},
{
closed = 1;
nodes = (
"224.204 266.328 OFFCURVE",
"224.041 266.334 OFFCURVE",
"223.879 266.35 CURVE SMOOTH",
"202.968 267.893 OFFCURVE",
"179.261 269.443 OFFCURVE",
"155.546 270.994 CURVE SMOOTH",
"131.807 272.545 OFFCURVE",
"108.066 274.098 OFFCURVE",
"87.1338 275.647 CURVE SMOOTH",
"83.5088 275.912 OFFCURVE",
"80.7813 279.072 OFFCURVE",
"81.0488 282.699 CURVE SMOOTH",
"81.3188 286.326 OFFCURVE",
"84.5073 289.053 OFFCURVE",
"88.1074 288.785 CURVE SMOOTH",
"109.005 287.236 OFFCURVE",
"132.705 285.691 OFFCURVE",
"156.402 284.143 CURVE SMOOTH",
"180.154 282.59 OFFCURVE",
"203.908 281.035 OFFCURVE",
"224.85 279.486 CURVE SMOOTH",
"228.478 279.221 OFFCURVE",
"231.203 276.065 OFFCURVE",
"230.928 272.432 CURVE SMOOTH",
"230.679 268.969 OFFCURVE",
"227.792 266.328 OFFCURVE",
"224.368 266.328 CURVE SMOOTH"
);
}
);
width = 300;
}
);
unicode = 0041;
},
{
glyphname = B;
lastChange = "2013-05-16 04:17:41 +0000";
layers = (
{
layerId = "204CD004-05F3-49D2-8673-0D9320CD8B89";
name = Regular;
paths = (
{
closed = 1;
nodes = (
"119.47 -121 OFFCURVE",
"107.412 -119 OFFCURVE",
"94.4033 -114 CURVE SMOOTH",
"91.9531 -113 OFFCURVE",
"90.2627 -111 OFFCURVE",
"90.1006 -108 CURVE SMOOTH",
"88.7231 -87 OFFCURVE",
"87.8042 147.584 OFFCURVE",
"100.533 252.451 CURVE SMOOTH",
"109.037 322.506 OFFCURVE",
"109.658 394.918 OFFCURVE",
"110.255 464.943 CURVE SMOOTH",
"110.457 488.545 OFFCURVE",
"110.664 512.953 OFFCURVE",
"111.169 536.925 CURVE SMOOTH",
"112.061 578.718 OFFCURVE",
"111.875 610.722 OFFCURVE",
"111.68 644.602 CURVE SMOOTH",
"111.562 664.361 OFFCURVE",
"111.443 685.042 OFFCURVE",
"111.518 709.125 CURVE SMOOTH",
"111.525 712.84 OFFCURVE",
"111.443 716.568 OFFCURVE",
"111.367 720.304 CURVE SMOOTH",
"110.96 739.095 OFFCURVE",
"110.542 758.528 OFFCURVE",
"121.285 776.792 CURVE SMOOTH",
"122.244 778.415 OFFCURVE",
"123.85 779.544 OFFCURVE",
"125.705 779.895 CURVE SMOOTH",
"164.803 787.236 OFFCURVE",
"189.43 784.719 OFFCURVE",
"205.529 771.706 CURVE SMOOTH",
"228.324 753.295 OFFCURVE",
"231.097 714.981 OFFCURVE",
"232.352 666.802 CURVE SMOOTH",
"233.699 615.113 OFFCURVE",
"230.577 572.964 OFFCURVE",
"227.273 528.338 CURVE SMOOTH",
"224.711 493.728 OFFCURVE",
"222.061 457.947 OFFCURVE",
"221.678 417.119 CURVE SMOOTH",
"221.54 402.818 OFFCURVE",
"222.268 389.006 OFFCURVE",
"222.969 375.647 CURVE SMOOTH",
"225.391 329.334 OFFCURVE",
"227.509 288.838 OFFCURVE",
"191.017 262.336 CURVE",
"195.918 259.432 OFFCURVE",
"200.561 255.902 OFFCURVE",
"204.822 251.807 CURVE SMOOTH",
"218.32 238.816 OFFCURVE",
"225.973 221.896 OFFCURVE",
"225.83 205.379 CURVE SMOOTH",
"225.705 191.801 OFFCURVE",
"225.618 179.287 OFFCURVE",
"225.538 167.527 CURVE SMOOTH",
"225.054 96.2305 OFFCURVE",
"224.763 53.1914 OFFCURVE",
"217.366 -30 CURVE SMOOTH",
"215.163 -55 OFFCURVE",
"210.58 -107 OFFCURVE",
"169.317 -116 CURVE SMOOTH",
"156.752 -118 OFFCURVE",
"144.209 -121 OFFCURVE",
"131.023 -121 CURVE SMOOTH"
);
},
{
closed = 1;
nodes = (
"123.589 -110 OFFCURVE",
"142.229 -108 OFFCURVE",
"166.675 -103 CURVE SMOOTH",
"194.67 -97 OFFCURVE",
"201.441 -62 OFFCURVE",
"204.371 -29 CURVE SMOOTH",
"211.726 53.8164 OFFCURVE",
"212.017 96.6484 OFFCURVE",
"212.497 167.617 CURVE SMOOTH",
"212.581 179.387 OFFCURVE",
"212.663 191.91 OFFCURVE",
"212.788 205.496 CURVE SMOOTH",
"212.898 218.439 OFFCURVE",
"206.703 231.895 OFFCURVE",
"195.777 242.406 CURVE SMOOTH",
"189.808 248.148 OFFCURVE",
"182.961 252.525 OFFCURVE",
"175.764 255.312 CURVE",
"175.473 255.402 OFFCURVE",
"175.179 255.512 OFFCURVE",
"174.903 255.643 CURVE",
"168.43 258.027 OFFCURVE",
"161.681 259.147 OFFCURVE",
"155.084 258.822 CURVE SMOOTH",
"146.332 258.422 OFFCURVE",
"134.087 258.549 OFFCURVE",
"123.285 258.658 CURVE SMOOTH",
"120.163 258.693 OFFCURVE",
"117.161 258.725 OFFCURVE",
"114.4 258.738 CURVE",
"114.102 256.117 OFFCURVE",
"113.799 253.496 OFFCURVE",
"113.481 250.881 CURVE SMOOTH",
"101.424 151.553 OFFCURVE",
"101.694 -65 OFFCURVE",
"102.927 -103 CURVE"
);
},
{
closed = 1;
nodes = (
"163.902 271.92 OFFCURVE",
"170.552 270.818 OFFCURVE",
"176.991 268.715 CURVE",
"214.338 291.047 OFFCURVE",
"212.389 328.197 OFFCURVE",
"209.939 374.963 CURVE SMOOTH",
"209.227 388.522 OFFCURVE",
"208.495 402.535 OFFCURVE",
"208.636 417.242 CURVE SMOOTH",
"209.025 458.49 OFFCURVE",
"211.692 494.488 OFFCURVE",
"214.265 529.302 CURVE SMOOTH",
"217.547 573.593 OFFCURVE",
"220.644 615.424 OFFCURVE",
"219.317 666.464 CURVE SMOOTH",
"217.977 717.703 OFFCURVE",
"214.081 748.037 OFFCURVE",
"197.336 761.563 CURVE SMOOTH",
"185.013 771.509 OFFCURVE",
"163.928 773.459 OFFCURVE",
"131.119 767.624 CURVE",
"123.699 753.224 OFFCURVE",
"124.043 737.339 OFFCURVE",
"124.404 720.584 CURVE SMOOTH",
"124.49 716.746 OFFCURVE",
"124.566 712.906 OFFCURVE",
"124.555 709.085 CURVE SMOOTH",
"124.484 685.045 OFFCURVE",
"124.607 664.401 OFFCURVE",
"124.717 644.677 CURVE SMOOTH",
"124.917 610.706 OFFCURVE",
"125.105 578.62 OFFCURVE",
"124.217 536.648 CURVE SMOOTH",
"123.706 512.759 OFFCURVE",
"123.499 488.395 OFFCURVE",
"123.297 464.83 CURVE SMOOTH",
"122.754 401.352 OFFCURVE",
"122.202 335.928 OFFCURVE",
"115.788 271.775 CURVE",
"118.2 271.754 OFFCURVE",
"120.767 271.728 OFFCURVE",
"123.427 271.699 CURVE SMOOTH",
"134.054 271.582 OFFCURVE",
"146.102 271.455 OFFCURVE",
"154.472 271.853 CURVE SMOOTH",
"155.41 271.898 OFFCURVE",
"156.346 271.92 OFFCURVE",
"157.283 271.92 CURVE SMOOTH"
);
}
);
width = 300;
}
);
unicode = 0042;
},
{
glyphname = C;
lastChange = "2013-05-16 04:20:09 +0000";
layers = (
{
anchors = (
{
name = bottom;
position = "{150, 0}";
},
{
name = top;
position = "{150, 500}";
}
);
layerId = "204CD004-05F3-49D2-8673-0D9320CD8B89";
name = Regular;
paths = (
{
closed = 1;
nodes = (
"116.673 -114 OFFCURVE",
"114.719 -73 OFFCURVE",
"113.281 -43 CURVE SMOOTH",
"113.08 -39 OFFCURVE",
"112.889 -35 OFFCURVE",
"112.553 -31 CURVE SMOOTH",
"102.521 83.748 OFFCURVE",
"92.4131 214.566 OFFCURVE",
"99.542 311.58 CURVE SMOOTH",
"103.874 370.504 OFFCURVE",
"104.061 425.5 OFFCURVE",
"104.238 478.678 CURVE SMOOTH",
"104.486 552.222 OFFCURVE",
"104.726 621.682 OFFCURVE",
"114.926 700.821 CURVE SMOOTH",
"115.705 706.885 OFFCURVE",
"116.115 713.362 OFFCURVE",
"116.543 720.225 CURVE SMOOTH",
"118.338 748.86 OFFCURVE",
"120.577 784.505 OFFCURVE",
"156.7 793.762 CURVE SMOOTH",
"157.613 793.994 OFFCURVE",
"158.565 794.032 OFFCURVE",
"159.497 793.857 CURVE SMOOTH",
"213.149 783.966 OFFCURVE",
"212.29 739.417 OFFCURVE",
"211.604 703.625 CURVE SMOOTH",
"211.519 699.241 OFFCURVE",
"211.436 694.914 OFFCURVE",
"211.451 690.713 CURVE SMOOTH",
"211.519 669.468 OFFCURVE",
"211.504 648.215 OFFCURVE",
"211.485 626.964 CURVE SMOOTH",
"211.468 598.651 LINE SMOOTH",
"211.468 595.05 OFFCURVE",
"208.549 592.13 OFFCURVE",
"204.945 592.13 CURVE SMOOTH",
"201.344 592.13 OFFCURVE",
"198.427 595.05 OFFCURVE",
"198.427 598.651 CURVE SMOOTH",
"198.441 626.973 LINE SMOOTH",
"198.456 648.208 OFFCURVE",
"198.471 669.443 OFFCURVE",
"198.404 690.674 CURVE SMOOTH",
"198.393 694.97 OFFCURVE",
"198.479 699.39 OFFCURVE",
"198.566 703.873 CURVE SMOOTH",
"199.241 739.095 OFFCURVE",
"199.881 772.386 OFFCURVE",
"158.565 780.756 CURVE",
"132.94 773.306 OFFCURVE",
"131.299 747.113 OFFCURVE",
"129.56 719.407 CURVE SMOOTH",
"129.139 712.64 OFFCURVE",
"128.695 705.642 OFFCURVE",
"127.861 699.153 CURVE SMOOTH",
"117.761 620.822 OFFCURVE",
"117.53 551.757 OFFCURVE",
"117.282 478.633 CURVE SMOOTH",
"117.101 425.228 OFFCURVE",
"116.916 370.004 OFFCURVE",
"112.548 310.625 CURVE SMOOTH",
"105.491 214.572 OFFCURVE",
"115.555 84.375 OFFCURVE",
"125.546 -30 CURVE SMOOTH",
"125.896 -34 OFFCURVE",
"126.103 -38 OFFCURVE",
"126.311 -43 CURVE SMOOTH",
"127.784 -73 OFFCURVE",
"129.204 -102 OFFCURVE",
"181.024 -101 CURVE",
"218.707 -94 OFFCURVE",
"219.848 -55 OFFCURVE",
"217.244 7.75195 CURVE SMOOTH",
"216.609 23.1836 OFFCURVE",
"215.955 39.1348 OFFCURVE",
"216.395 54.2559 CURVE SMOOTH",
"216.498 57.8535 OFFCURVE",
"219.361 60.6582 OFFCURVE",
"223.105 60.582 CURVE SMOOTH",
"226.704 60.4785 OFFCURVE",
"229.536 57.4746 OFFCURVE",
"229.431 53.873 CURVE SMOOTH",
"228.998 39.2148 OFFCURVE",
"229.649 23.4941 OFFCURVE",
"230.275 8.29102 CURVE SMOOTH",
"232.577 -47 OFFCURVE",
"234.95 -105 OFFCURVE",
"182.715 -114 CURVE SMOOTH",
"182.441 -114 OFFCURVE",
"182.175 -114 OFFCURVE",
"181.898 -114 CURVE SMOOTH",
"180.183 -114 OFFCURVE",
"178.504 -114 OFFCURVE",
"176.876 -114 CURVE SMOOTH"
);
}
);
width = 300;
}
);
unicode = 0043;
},
{
glyphname = D;
lastChange = "2013-05-16 04:20:23 +0000";
layers = (
{
anchors = (
{
name = center;
position = "{150, 250}";
},
{
name = top;
position = "{150, 500}";
}
);
layerId = "204CD004-05F3-49D2-8673-0D9320CD8B89";
name = Regular;
paths = (
{
closed = 1;
nodes = (
"99.2324 -114 OFFCURVE",
"97.8271 -113 OFFCURVE",
"96.6836 -112 CURVE SMOOTH",
"95.25 -111 OFFCURVE",
"94.333 -110 OFFCURVE",
"94.168 -108 CURVE SMOOTH",
"92.3389 -88 OFFCURVE",
"93.0244 -74 OFFCURVE",
"93.7529 -58 CURVE SMOOTH",
"94.2705 -47 OFFCURVE",
"94.8057 -36 OFFCURVE",
"94.5723 -22 CURVE SMOOTH",
"92.8594 84.2031 OFFCURVE",
"96.4824 206.15 OFFCURVE",
"99.9785 324.082 CURVE SMOOTH",
"101.779 384.565 OFFCURVE",
"103.473 441.697 OFFCURVE",
"104.432 495.428 CURVE SMOOTH",
"105.083 531.691 OFFCURVE",
"106.452 557.255 OFFCURVE",
"108.042 586.859 CURVE SMOOTH",
"108.91 603.002 OFFCURVE",
"109.829 620.081 OFFCURVE",
"110.697 640.356 CURVE SMOOTH",
"111.261 653.511 OFFCURVE",
"111.227 667.013 OFFCURVE",
"111.187 680.071 CURVE SMOOTH",
"111.098 708.294 OFFCURVE",
"111.019 737.472 OFFCURVE",
"116.801 767.127 CURVE SMOOTH",
"117.045 768.399 OFFCURVE",
"117.665 769.568 OFFCURVE",
"118.582 770.485 CURVE SMOOTH",
"123.229 775.144 OFFCURVE",
"129.748 777.406 OFFCURVE",
"138.509 777.406 CURVE SMOOTH",
"143.601 777.406 OFFCURVE",
"148.862 776.655 OFFCURVE",
"153.506 775.993 CURVE SMOOTH",
"155.754 775.675 OFFCURVE",
"157.913 775.363 OFFCURVE",
"159.914 775.165 CURVE SMOOTH",
"160.185 775.14 OFFCURVE",
"160.449 775.096 OFFCURVE",
"160.717 775.035 CURVE SMOOTH",
"205.711 764.796 OFFCURVE",
"228.646 733.344 OFFCURVE",
"235.077 673.049 CURVE SMOOTH",
"241.879 609.351 OFFCURVE",
"238.204 556.865 OFFCURVE",
"234.321 501.295 CURVE SMOOTH",
"232.159 470.383 OFFCURVE",
"229.926 438.42 OFFCURVE",
"229.444 403.24 CURVE SMOOTH",
"228.087 302.955 OFFCURVE",
"223.207 157.535 OFFCURVE",
"220.586 79.4141 CURVE SMOOTH",
"220.268 69.8438 OFFCURVE",
"220.034 60.2559 OFFCURVE",
"219.795 50.6738 CURVE SMOOTH",
"219.096 22.2148 OFFCURVE",
"218.372 -7 OFFCURVE",
"215.328 -36 CURVE SMOOTH",
"213.183 -56 OFFCURVE",
"210.132 -61 OFFCURVE",
"199.887 -73 CURVE SMOOTH",
"197.681 -76 OFFCURVE",
"195.085 -79 OFFCURVE",
"192.029 -83 CURVE SMOOTH",
"175.623 -104 OFFCURVE",
"143.675 -108 OFFCURVE",
"118.002 -111 CURVE SMOOTH",
"112.2 -112 OFFCURVE",
"106.688 -113 OFFCURVE",
"101.737 -114 CURVE SMOOTH",
"101.382 -114 OFFCURVE",
"101.02 -114 OFFCURVE",
"100.658 -114 CURVE SMOOTH"
);
},
{
closed = 1;
nodes = (
"124.067 734.706 OFFCURVE",
"124.152 706.964 OFFCURVE",
"124.225 680.111 CURVE SMOOTH",
"124.264 666.904 OFFCURVE",
"124.305 653.252 OFFCURVE",
"123.727 639.798 CURVE SMOOTH",
"122.861 619.469 OFFCURVE",
"121.936 602.346 OFFCURVE",
"121.065 586.16 CURVE SMOOTH",
"119.483 556.68 OFFCURVE",
"118.118 531.222 OFFCURVE",
"117.469 495.191 CURVE SMOOTH",
"116.511 441.387 OFFCURVE",
"114.814 384.219 OFFCURVE",
"113.02 323.695 CURVE SMOOTH",
"109.522 205.914 OFFCURVE",
"105.906 84.1133 OFFCURVE",
"107.612 -21 CURVE SMOOTH",
"107.854 -36 OFFCURVE",
"107.308 -48 OFFCURVE",
"106.778 -59 CURVE SMOOTH",
"106.139 -72 OFFCURVE",
"105.572 -84 OFFCURVE",
"106.603 -100 CURVE",
"109.749 -99 OFFCURVE",
"113.041 -99 OFFCURVE",
"116.428 -98 CURVE SMOOTH",
"139.694 -96 OFFCURVE",
"168.649 -92 OFFCURVE",
"181.715 -75 CURVE SMOOTH",
"184.865 -71 OFFCURVE",
"187.534 -68 OFFCURVE",
"189.811 -65 CURVE SMOOTH",
"198.89 -54 OFFCURVE",
"200.523 -52 OFFCURVE",
"202.355 -35 CURVE SMOOTH",
"205.35 -6 OFFCURVE",
"206.066 22.7949 OFFCURVE",
"206.758 50.9902 CURVE SMOOTH",
"206.996 60.6172 OFFCURVE",
"207.233 70.2402 OFFCURVE",
"207.551 79.8535 CURVE SMOOTH",
"210.172 157.928 OFFCURVE",
"215.05 303.262 OFFCURVE",
"216.4 403.42 CURVE SMOOTH",
"216.888 438.965 OFFCURVE",
"219.135 471.115 OFFCURVE",
"221.309 502.207 CURVE SMOOTH",
"225.155 557.183 OFFCURVE",
"228.789 609.11 OFFCURVE",
"222.115 671.67 CURVE SMOOTH",
"216.301 726.102 OFFCURVE",
"197.183 753.213 OFFCURVE",
"158.203 762.231 CURVE",
"156.149 762.445 OFFCURVE",
"153.95 762.757 OFFCURVE",
"151.668 763.08 CURVE SMOOTH",
"147.249 763.711 OFFCURVE",
"142.68 764.365 OFFCURVE",
"138.509 764.365 CURVE SMOOTH",
"134.371 764.365 OFFCURVE",
"131.289 763.702 OFFCURVE",
"129.164 762.352 CURVE"
);
}
);
width = 300;
}
);
unicode = 0044;
},
{
glyphname = E;
lastChange = "2013-05-16 04:18:20 +0000";
layers = (
{
anchors = (
{
name = bottom;
position = "{150, 0}";
},
{
name = ogonek;
position = "{270, 10}";
},
{
name = top;
position = "{150, 500}";
}
);
layerId = "204CD004-05F3-49D2-8673-0D9320CD8B89";
name = Regular;
paths = (
{
closed = 1;
nodes = (
"99.7881 -109 OFFCURVE",
"98.4023 -109 OFFCURVE",
"97.2607 -108 CURVE SMOOTH",
"95.4805 -107 OFFCURVE",
"94.5068 -104 OFFCURVE",
"94.6689 -102 CURVE SMOOTH",
"105.974 51.5059 OFFCURVE",
"105.444 201.121 OFFCURVE",
"104.93 345.809 CURVE SMOOTH",
"104.417 490.424 OFFCURVE",
"103.932 627.025 OFFCURVE",
"114.184 768.237 CURVE SMOOTH",
"114.41 771.459 OFFCURVE",
"116.974 774.025 OFFCURVE",
"120.192 774.267 CURVE SMOOTH",
"137.824 775.598 OFFCURVE",
"153.736 775.329 OFFCURVE",
"169.136 775.066 CURVE SMOOTH",
"192.878 774.657 OFFCURVE",
"213.354 774.318 OFFCURVE",
"233.98 779.83 CURVE SMOOTH",
"237.426 780.74 OFFCURVE",
"241.027 778.693 OFFCURVE",
"241.958 775.21 CURVE SMOOTH",
"242.889 771.729 OFFCURVE",
"240.828 768.157 OFFCURVE",
"237.346 767.228 CURVE SMOOTH",
"214.952 761.248 OFFCURVE",
"192.61 761.617 OFFCURVE",
"168.911 762.024 CURVE SMOOTH",
"155.492 762.254 OFFCURVE",
"141.654 762.482 OFFCURVE",
"126.785 761.633 CURVE",
"116.986 622.917 OFFCURVE",
"117.463 488.279 OFFCURVE",
"117.97 345.855 CURVE SMOOTH",
"118.477 204.006 OFFCURVE",
"118.998 57.4297 OFFCURVE",
"108.387 -93 CURVE",
"135.065 -85 OFFCURVE",
"159.003 -84 OFFCURVE",
"182.241 -83 CURVE SMOOTH",
"200.341 -82 OFFCURVE",
"217.436 -82 OFFCURVE",
"234 -77 CURVE SMOOTH",
"237.44 -76 OFFCURVE",
"241.051 -78 OFFCURVE",
"241.967 -82 CURVE SMOOTH",
"242.88 -85 OFFCURVE",
"240.805 -89 OFFCURVE",
"237.322 -90 CURVE SMOOTH",
"219.389 -95 OFFCURVE",
"201.613 -95 OFFCURVE",
"182.782 -96 CURVE SMOOTH",
"157.849 -97 OFFCURVE",
"132.057 -98 OFFCURVE",
"103.453 -109 CURVE SMOOTH",
"102.713 -109 OFFCURVE",
"101.941 -109 OFFCURVE",
"101.174 -109 CURVE SMOOTH"
);
},
{
closed = 1;
nodes = (
"108.307 267.422 OFFCURVE",
"105.459 269.978 OFFCURVE",
"105.162 273.371 CURVE SMOOTH",
"104.85 276.961 OFFCURVE",
"107.493 280.127 OFFCURVE",
"111.09 280.438 CURVE SMOOTH",
"127.581 281.885 OFFCURVE",
"145.982 281.91 OFFCURVE",
"165.456 281.91 CURVE SMOOTH",
"166.125 281.908 OFFCURVE",
"166.777 281.912 OFFCURVE",
"167.429 281.91 CURVE SMOOTH",
"187.29 281.91 OFFCURVE",
"207.768 281.935 OFFCURVE",
"225.87 283.588 CURVE SMOOTH",
"229.433 283.924 OFFCURVE",
"232.631 281.268 OFFCURVE",
"232.963 277.691 CURVE SMOOTH",
"233.288 274.102 OFFCURVE",
"230.645 270.93 OFFCURVE",
"227.062 270.603 CURVE SMOOTH",
"208.367 268.891 OFFCURVE",
"187.58 268.867 OFFCURVE",
"167.42 268.867 CURVE SMOOTH",
"166.779 268.867 OFFCURVE",
"166.114 268.867 OFFCURVE",
"165.456 268.867 CURVE SMOOTH",
"146.276 268.867 OFFCURVE",
"128.162 268.842 OFFCURVE",
"112.219 267.447 CURVE SMOOTH",
"112.032 267.428 OFFCURVE",
"111.838 267.422 OFFCURVE",
"111.65 267.422 CURVE SMOOTH"
);
}
);
width = 300;
}
);
unicode = 0045;
},
{
glyphname = F;
lastChange = "2013-05-16 04:18:33 +0000";
layers = (
{
layerId = "204CD004-05F3-49D2-8673-0D9320CD8B89";
name = Regular;
paths = (
{
closed = 1;
nodes = (
"122.518 -111 OFFCURVE",
"122.466 -111 OFFCURVE",
"122.424 -111 CURVE SMOOTH",
"118.828 -111 OFFCURVE",
"115.968 -108 OFFCURVE",
"116.042 -105 CURVE SMOOTH",
"119.764 67.7012 OFFCURVE",
"117.166 235.395 OFFCURVE",
"114.661 397.559 CURVE SMOOTH",
"112.803 517.58 OFFCURVE",
"110.883 641.681 OFFCURVE",
"111.424 769.194 CURVE SMOOTH",
"111.438 772.644 OFFCURVE",
"114.139 775.483 OFFCURVE",
"117.587 775.677 CURVE SMOOTH",
"241.848 782.651 LINE SMOOTH",
"245.564 782.881 OFFCURVE",
"248.528 780.099 OFFCURVE",
"248.725 776.506 CURVE SMOOTH",
"248.927 772.912 OFFCURVE",
"246.173 769.833 OFFCURVE",
"242.585 769.628 CURVE SMOOTH",
"124.447 762.998 LINE",
"123.985 637.763 OFFCURVE",
"125.878 515.79 OFFCURVE",
"127.696 397.764 CURVE SMOOTH",
"130.203 235.479 OFFCURVE",
"132.801 67.6641 OFFCURVE",
"129.088 -105 CURVE SMOOTH",
"129.008 -109 OFFCURVE",
"126.105 -111 OFFCURVE",
"122.562 -111 CURVE SMOOTH"
);
},
{
closed = 1;
nodes = (
"122.526 284.857 OFFCURVE",
"119.635 287.611 OFFCURVE",
"119.493 291.119 CURVE SMOOTH",
"119.349 294.717 OFFCURVE",
"122.147 297.752 OFFCURVE",
"125.747 297.895 CURVE SMOOTH",
"140.913 298.5 OFFCURVE",
"155.433 298.605 OFFCURVE",
"169.48 298.699 CURVE SMOOTH",
"189.06 298.832 OFFCURVE",
"209.305 298.975 OFFCURVE",
"232.594 300.449 CURVE SMOOTH",
"236.14 300.727 OFFCURVE",
"239.293 297.947 OFFCURVE",
"239.523 294.35 CURVE SMOOTH",
"239.75 290.758 OFFCURVE",
"237.019 287.658 OFFCURVE",
"233.428 287.432 CURVE SMOOTH",
"209.76 285.934 OFFCURVE",
"189.333 285.793 OFFCURVE",
"169.569 285.658 CURVE SMOOTH",
"154.986 285.559 OFFCURVE",
"141.22 285.463 OFFCURVE",
"126.271 284.865 CURVE SMOOTH",
"126.18 284.861 OFFCURVE",
"126.092 284.857 OFFCURVE",
"126.003 284.857 CURVE SMOOTH"
);
}
);
width = 300;
}
);
unicode = 0046;
},
{
glyphname = G;
lastChange = "2013-05-16 04:19:56 +0000";
layers = (
{
anchors = (
{
name = bottom;
position = "{150, 0}";
},
{
name = top;
position = "{150, 500}";
}
);
layerId = "204CD004-05F3-49D2-8673-0D9320CD8B89";
name = Regular;
paths = (
{
closed = 1;
nodes = (
"131.297 -109 OFFCURVE",
"119.206 -85 OFFCURVE",
"107.491 -62 CURVE SMOOTH",
"104.979 -57 OFFCURVE",
"102.421 -52 OFFCURVE",
"99.6328 -47 CURVE SMOOTH",
"85.542 -22 OFFCURVE",
"86.0947 -8 OFFCURVE",
"86.7891 10.4082 CURVE SMOOTH",
"87.0732 17.7715 OFFCURVE",
"87.3945 26.1191 OFFCURVE",
"86.6777 36.3398 CURVE SMOOTH",
"83.6582 79.6582 OFFCURVE",
"84.2637 131.547 OFFCURVE",
"84.8477 181.727 CURVE SMOOTH",
"85.3086 221.391 OFFCURVE",
"85.7412 258.855 OFFCURVE",
"84.5234 292.096 CURVE SMOOTH",
"79.8721 418.375 OFFCURVE",
"86.0547 555.684 OFFCURVE",
"103.409 711.876 CURVE SMOOTH",
"103.547 713.117 OFFCURVE",
"103.418 714.715 OFFCURVE",
"103.274 716.406 CURVE SMOOTH",
"103.01 719.643 OFFCURVE",
"102.702 723.311 OFFCURVE",
"104.002 727.033 CURVE SMOOTH",
"105.102 730.205 OFFCURVE",
"106.141 733.502 OFFCURVE",
"107.187 736.834 CURVE SMOOTH",
"114.039 758.648 OFFCURVE",
"122.549 785.739 OFFCURVE",
"154.97 785.739 CURVE SMOOTH",
"155.34 785.739 OFFCURVE",
"155.701 785.739 OFFCURVE",
"156.068 785.73 CURVE SMOOTH",
"186.096 785.17 OFFCURVE",
"204.988 763.187 OFFCURVE",
"207.906 725.415 CURVE SMOOTH",
"208.717 714.9 OFFCURVE",
"210.8 704.062 OFFCURVE",
"212.822 693.578 CURVE SMOOTH",
"217.577 668.892 OFFCURVE",
"222.494 643.364 OFFCURVE",
"212.712 616.855 CURVE SMOOTH",
"211.463 613.475 OFFCURVE",
"207.707 611.736 OFFCURVE",
"204.332 612.996 CURVE SMOOTH",
"200.955 614.24 OFFCURVE",
"199.23 617.992 OFFCURVE",
"200.471 621.37 CURVE SMOOTH",
"208.998 644.468 OFFCURVE",
"204.636 667.125 OFFCURVE",
"200.013 691.112 CURVE SMOOTH",
"197.93 701.95 OFFCURVE",
"195.773 713.159 OFFCURVE",
"194.896 724.409 CURVE SMOOTH",
"193.525 742.196 OFFCURVE",
"186.628 772.114 OFFCURVE",
"155.826 772.69 CURVE SMOOTH",
"133.899 773.34 OFFCURVE",
"127.492 757.935 OFFCURVE",
"119.627 732.926 CURVE SMOOTH",
"118.543 729.468 OFFCURVE",
"117.465 726.042 OFFCURVE",
"116.32 722.748 CURVE SMOOTH",
"115.931 721.629 OFFCURVE",
"116.107 719.517 OFFCURVE",
"116.273 717.479 CURVE SMOOTH",
"116.455 715.354 OFFCURVE",
"116.648 712.944 OFFCURVE",
"116.377 710.45 CURVE SMOOTH",
"99.0859 554.89 OFFCURVE",
"92.9316 418.207 OFFCURVE",
"97.5488 292.574 CURVE SMOOTH",
"98.7871 259.022 OFFCURVE",
"98.3516 221.402 OFFCURVE",
"97.8857 181.574 CURVE SMOOTH",
"97.3115 131.656 OFFCURVE",
"96.7109 80.0371 OFFCURVE",
"99.6953 37.2461 CURVE SMOOTH",
"100.455 26.3203 OFFCURVE",
"100.117 17.5996 OFFCURVE",
"99.8232 9.90625 CURVE SMOOTH",
"99.1582 -7 OFFCURVE",
"98.7158 -19 OFFCURVE",
"110.995 -40 CURVE SMOOTH",
"113.885 -46 OFFCURVE",
"116.537 -51 OFFCURVE",
"119.136 -56 CURVE SMOOTH",
"132.607 -83 OFFCURVE",
"142.22 -99 OFFCURVE",
"168.306 -95 CURVE SMOOTH",
"193.396 -92 OFFCURVE",
"206.93 -74 OFFCURVE",
"215.021 -33 CURVE SMOOTH",
"223.461 9.18555 OFFCURVE",
"222.707 52.6133 OFFCURVE",
"221.985 94.6094 CURVE SMOOTH",
"221.316 133.426 OFFCURVE",
"220.624 173.512 OFFCURVE",
"227.314 212.346 CURVE",
"215.995 218.35 OFFCURVE",
"205.88 216.064 OFFCURVE",
"195.221 213.674 CURVE SMOOTH",
"186.334 211.682 OFFCURVE",
"177.146 209.613 OFFCURVE",
"167.479 212.469 CURVE SMOOTH",
"164.027 213.486 OFFCURVE",
"162.052 217.115 OFFCURVE",
"163.068 220.568 CURVE SMOOTH",
"164.086 224.02 OFFCURVE",
"167.697 225.982 OFFCURVE",
"171.168 224.975 CURVE SMOOTH",
"177.582 223.094 OFFCURVE",
"184.42 224.621 OFFCURVE",
"192.372 226.398 CURVE SMOOTH",
"204.992 229.242 OFFCURVE",
"220.734 232.779 OFFCURVE",
"238.174 221.012 CURVE SMOOTH",
"240.331 219.559 OFFCURVE",
"241.419 216.961 OFFCURVE",
"240.935 214.404 CURVE SMOOTH",
"233.634 175.488 OFFCURVE",
"234.308 136.312 OFFCURVE",
"235.027 94.8359 CURVE SMOOTH",
"235.765 52.1504 OFFCURVE",
"236.53 8.01953 OFFCURVE",
"227.81 -36 CURVE SMOOTH",
"221.276 -69 OFFCURVE",
"209.295 -103 OFFCURVE",
"169.971 -108 CURVE SMOOTH",
"167.049 -109 OFFCURVE",
"164.27 -109 OFFCURVE",
"161.637 -109 CURVE SMOOTH"
);
}
);
width = 300;
}
);
unicode = 0047;
},
{
glyphname = H;
lastChange = "2013-05-16 04:18:06 +0000";
layers = (
{
anchors = (
{
name = center;
position = "{150, 250}";
},
{
name = top;
position = "{150, 500}";
}
);
layerId = "204CD004-05F3-49D2-8673-0D9320CD8B89";
name = Regular;
paths = (
{
closed = 1;
nodes = (
"218.557 -112 OFFCURVE",
"215.691 -109 OFFCURVE",
"215.44 -106 CURVE SMOOTH",
"213.662 -82 OFFCURVE",
"211.498 -56 OFFCURVE",
"209.246 -28 CURVE SMOOTH",
"201.715 62.5098 OFFCURVE",
"193.184 165.541 OFFCURVE",
"194.734 245.91 CURVE SMOOTH",
"195.145 268.012 LINE SMOOTH",
"196.604 348.228 OFFCURVE",
"198.418 448.066 OFFCURVE",
"209.398 525.638 CURVE SMOOTH",
"217.02 579.565 OFFCURVE",
"217.733 620.668 OFFCURVE",
"218.562 668.256 CURVE SMOOTH",
"218.844 684.466 OFFCURVE",
"219.135 701.477 OFFCURVE",
"219.723 720.063 CURVE SMOOTH",
"220.286 738.193 OFFCURVE",
"220.93 758.745 OFFCURVE",
"229.85 777.834 CURVE SMOOTH",
"231.381 781.092 OFFCURVE",
"235.248 782.5 OFFCURVE",
"238.525 780.981 CURVE SMOOTH",
"241.787 779.454 OFFCURVE",
"243.192 775.575 OFFCURVE",
"241.67 772.313 CURVE SMOOTH",
"233.885 755.652 OFFCURVE",
"233.31 737.354 OFFCURVE",
"232.758 719.655 CURVE SMOOTH",
"232.177 701.135 OFFCURVE",
"231.885 684.187 OFFCURVE",
"231.605 668.029 CURVE SMOOTH",
"230.771 620.007 OFFCURVE",
"230.053 578.537 OFFCURVE",
"222.312 523.808 CURVE SMOOTH",
"211.44 447.025 OFFCURVE",
"209.639 347.639 OFFCURVE",
"208.185 267.775 CURVE SMOOTH",
"207.775 245.66 LINE SMOOTH",
"206.238 165.955 OFFCURVE",
"214.737 63.2754 OFFCURVE",
"222.244 -27 CURVE SMOOTH",
"224.504 -55 OFFCURVE",
"226.668 -81 OFFCURVE",
"228.444 -105 CURVE SMOOTH",
"228.713 -109 OFFCURVE",
"226.012 -112 OFFCURVE",
"222.421 -112 CURVE SMOOTH",
"222.262 -112 OFFCURVE",
"222.094 -112 OFFCURVE",
"221.936 -112 CURVE SMOOTH"
);
},
{
closed = 1;
nodes = (
"120.691 -99 OFFCURVE",
"120.678 -99 OFFCURVE",
"120.67 -99 CURVE SMOOTH",
"117.066 -99 OFFCURVE",
"114.162 -96 OFFCURVE",
"114.173 -92 CURVE SMOOTH",
"114.443 -30 OFFCURVE",
"111.146 25.5723 OFFCURVE",
"107.962 79.7305 CURVE SMOOTH",
"104.886 132.027 OFFCURVE",
"101.699 186.105 OFFCURVE",
"101.643 245.828 CURVE SMOOTH",
"101.603 291.31 OFFCURVE",
"104.363 337.316 OFFCURVE",
"107.031 381.805 CURVE SMOOTH",
"110.858 445.697 OFFCURVE",
"114.813 511.76 OFFCURVE",
"110.474 576.81 CURVE SMOOTH",
"109.123 597.135 OFFCURVE",
"111.615 617.722 OFFCURVE",
"114.028 637.629 CURVE SMOOTH",
"116.2 655.56 OFFCURVE",
"118.447 674.101 OFFCURVE",
"117.746 691.94 CURVE SMOOTH",
"117.062 709.517 OFFCURVE",
"120.138 726.364 OFFCURVE",
"123.111 742.654 CURVE SMOOTH",
"126.261 759.897 OFFCURVE",
"129.223 776.178 OFFCURVE",
"128.01 793.014 CURVE SMOOTH",
"127.746 796.604 OFFCURVE",
"130.447 799.729 OFFCURVE",
"134.04 799.989 CURVE SMOOTH",
"137.613 800.2 OFFCURVE",
"140.752 797.551 OFFCURVE",
"141.008 793.956 CURVE SMOOTH",
"142.355 775.467 OFFCURVE",
"139.1 757.598 OFFCURVE",
"135.938 740.315 CURVE SMOOTH",
"133.09 724.717 OFFCURVE",
"130.15 708.59 OFFCURVE",
"130.777 692.449 CURVE SMOOTH",
"131.516 673.569 OFFCURVE",
"129.215 654.502 OFFCURVE",
"126.975 636.059 CURVE SMOOTH",
"124.639 616.75 OFFCURVE",
"122.22 596.782 OFFCURVE",
"123.492 577.678 CURVE SMOOTH",
"127.879 511.804 OFFCURVE",
"123.898 445.32 OFFCURVE",
"120.046 381.023 CURVE SMOOTH",
"117.393 336.732 OFFCURVE",
"114.646 290.926 OFFCURVE",
"114.683 245.842 CURVE SMOOTH",
"114.742 186.492 OFFCURVE",
"117.915 132.607 OFFCURVE",
"120.977 80.4961 CURVE SMOOTH",
"124.181 26.1348 OFFCURVE",
"127.484 -30 OFFCURVE",
"127.22 -92 CURVE SMOOTH",
"127.203 -96 OFFCURVE",
"124.288 -99 OFFCURVE",
"120.695 -99 CURVE SMOOTH"
);
},
{
closed = 1;
nodes = (
"112.665 234.703 OFFCURVE",
"109.794 237.373 OFFCURVE",
"109.589 240.838 CURVE SMOOTH",
"109.373 244.434 OFFCURVE",
"112.119 247.521 OFFCURVE",
"115.707 247.732 CURVE SMOOTH",
"193.95 252.346 LINE SMOOTH",
"197.497 252.588 OFFCURVE",
"200.634 249.812 OFFCURVE",
"200.844 246.217 CURVE SMOOTH",
"201.055 242.621 OFFCURVE",
"198.309 239.539 OFFCURVE",
"194.717 239.326 CURVE SMOOTH",
"116.488 234.717 LINE SMOOTH",
"116.354 234.707 OFFCURVE",
"116.22 234.703 OFFCURVE",
"116.094 234.703 CURVE SMOOTH"
);
}
);
width = 300;
}
);
unicode = 0048;
},
{
glyphname = I;
lastChange = "2013-05-16 04:17:53 +0000";
layers = (
{
anchors = (
{
name = ogonek;
position = "{270, 10}";
},
{
name = top;
position = "{150, 500}";
}
);
layerId = "204CD004-05F3-49D2-8673-0D9320CD8B89";
name = Regular;
paths = (
{
closed = 1;
nodes = (
"149.518 -94 OFFCURVE",
"146.605 -91 OFFCURVE",
"146.541 -88 CURVE SMOOTH",
"145.648 -40 LINE SMOOTH",
"144.066 44.9473 OFFCURVE",
"142.091 150.049 OFFCURVE",
"142.265 221.297 CURVE SMOOTH",
"142.354 274.801 LINE SMOOTH",
"142.493 390.465 OFFCURVE",
"142.62 490.357 OFFCURVE",
"148.254 610.127 CURVE SMOOTH",
"148.618 617.817 OFFCURVE",
"148.957 625.63 OFFCURVE",
"149.298 633.537 CURVE SMOOTH",
"151.223 678.236 OFFCURVE",
"153.217 724.461 OFFCURVE",
"160.433 767.451 CURVE SMOOTH",
"161.033 771.004 OFFCURVE",
"164.377 773.419 OFFCURVE",
"167.941 772.803 CURVE SMOOTH",
"171.492 772.208 OFFCURVE",
"173.889 768.843 OFFCURVE",
"173.294 765.292 CURVE SMOOTH",
"166.215 723.095 OFFCURVE",
"164.239 677.279 OFFCURVE",
"162.334 632.976 CURVE SMOOTH",
"161.984 625.05 OFFCURVE",
"161.648 617.217 OFFCURVE",
"161.287 609.515 CURVE SMOOTH",
"155.658 490.043 OFFCURVE",
"155.535 390.287 OFFCURVE",
"155.396 274.783 CURVE SMOOTH",
"155.305 221.268 LINE SMOOTH",
"155.14 150.154 OFFCURVE",
"157.106 45.127 OFFCURVE",
"158.694 -39 CURVE SMOOTH",
"159.585 -87 LINE SMOOTH",
"159.646 -91 OFFCURVE",
"156.782 -94 OFFCURVE",
"153.183 -94 CURVE SMOOTH",
"153.141 -94 OFFCURVE",
"153.101 -94 OFFCURVE",
"153.066 -94 CURVE SMOOTH"
);
},
{
closed = 1;
nodes = (
"181.371 -105 OFFCURVE",
"168.775 -103 OFFCURVE",
"156.458 -101 CURVE SMOOTH",
"139.402 -99 OFFCURVE",
"121.755 -96 OFFCURVE",
"103.195 -99 CURVE SMOOTH",
"99.499 -99 OFFCURVE",
"96.3721 -97 OFFCURVE",
"95.959 -93 CURVE SMOOTH",
"95.54 -89 OFFCURVE",
"98.1035 -86 OFFCURVE",
"101.676 -86 CURVE SMOOTH",
"121.918 -83 OFFCURVE",
"140.387 -86 OFFCURVE",
"158.242 -88 CURVE SMOOTH",
"176.531 -91 OFFCURVE",
"193.789 -93 OFFCURVE",
"211.852 -90 CURVE SMOOTH",
"215.412 -90 OFFCURVE",
"218.755 -92 OFFCURVE",
"219.335 -96 CURVE SMOOTH",
"219.904 -99 OFFCURVE",
"217.491 -103 OFFCURVE",
"213.94 -103 CURVE SMOOTH",
"207.31 -104 OFFCURVE",
"200.777 -105 OFFCURVE",
"194.338 -105 CURVE SMOOTH"
);
},
{
closed = 1;
nodes = (
"117.954 759.846 OFFCURVE",
"115.318 761.773 OFFCURVE",
"114.542 764.69 CURVE SMOOTH",
"113.612 768.17 OFFCURVE",
"115.684 771.746 OFFCURVE",
"119.155 772.672 CURVE SMOOTH",
"141.021 778.503 OFFCURVE",
"163.105 778.031 OFFCURVE",
"184.48 777.566 CURVE SMOOTH",
"193.744 777.366 OFFCURVE",
"203.342 777.163 OFFCURVE",
"212.666 777.494 CURVE SMOOTH",
"216.1 777.612 OFFCURVE",
"219.289 774.812 OFFCURVE",
"219.413 771.207 CURVE SMOOTH",
"219.543 767.61 OFFCURVE",
"216.729 764.588 OFFCURVE",
"213.132 764.457 CURVE SMOOTH",
"203.449 764.107 OFFCURVE",
"193.664 764.324 OFFCURVE",
"184.197 764.527 CURVE SMOOTH",
"162.806 764.98 OFFCURVE",
"142.601 765.424 OFFCURVE",
"122.521 760.068 CURVE SMOOTH",
"121.952 759.92 OFFCURVE",
"121.394 759.85 OFFCURVE",
"120.83 759.846 CURVE SMOOTH"
);
}
);
width = 300;
}
);
unicode = 0049;
},
{
glyphname = J;
lastChange = "2013-05-16 04:19:43 +0000";
layers = (
{
anchors = (
{
name = top;
position = "{150, 500}";
}
);
layerId = "204CD004-05F3-49D2-8673-0D9320CD8B89";
name = Regular;
paths = (
{
closed = 1;
nodes = (
"148.095 -104 OFFCURVE",
"146.268 -103 OFFCURVE",
"144.37 -103 CURVE SMOOTH",
"124.057 -101 OFFCURVE",
"112.308 -89 OFFCURVE",
"111.278 -69 CURVE SMOOTH",
"110.604 -57 OFFCURVE",
"109.348 -41 OFFCURVE",
"108.022 -25 CURVE SMOOTH",
"104.019 25.6504 OFFCURVE",
"99.0322 88.207 OFFCURVE",
"104.084 125.672 CURVE SMOOTH",
"104.571 129.236 OFFCURVE",
"107.767 131.744 OFFCURVE",
"111.423 131.264 CURVE SMOOTH",
"114.99 130.779 OFFCURVE",
"117.495 127.494 OFFCURVE",
"117.014 123.926 CURVE SMOOTH",
"112.146 87.8496 OFFCURVE",
"117.068 26.0664 OFFCURVE",
"121.021 -24 CURVE SMOOTH",
"122.361 -40 OFFCURVE",
"123.619 -56 OFFCURVE",
"124.301 -69 CURVE SMOOTH",
"124.983 -81 OFFCURVE",
"132.107 -88 OFFCURVE",
"146.074 -90 CURVE SMOOTH",
"156.52 -92 OFFCURVE",
"162.322 -88 OFFCURVE",
"166.868 -76 CURVE SMOOTH",
"169.491 -69 OFFCURVE",
"172.013 -64 OFFCURVE",
"174.451 -58 CURVE SMOOTH",
"178.756 -48 OFFCURVE",
"183.201 -38 OFFCURVE",
"188.599 -22 CURVE",
"189.786 -11 LINE SMOOTH",
"197.921 65.5957 OFFCURVE",
"203.805 120.615 OFFCURVE",
"194.301 199.092 CURVE SMOOTH",
"194.25 199.514 OFFCURVE",
"194.247 199.939 OFFCURVE",
"194.281 200.365 CURVE SMOOTH",
"196.793 233.885 OFFCURVE",
"195.329 299.219 OFFCURVE",
"193.917 362.4 CURVE SMOOTH",
"192.534 423.922 OFFCURVE",
"191.236 482.035 OFFCURVE",
"193.388 512.265 CURVE SMOOTH",
"194.54 528.278 LINE SMOOTH",
"198.077 576.831 OFFCURVE",
"200.415 608.907 OFFCURVE",
"196.367 660.248 CURVE SMOOTH",
"192.078 714.681 OFFCURVE",
"192.395 724.709 OFFCURVE",
"193.712 766.902 CURVE SMOOTH",
"194.039 777.413 LINE SMOOTH",
"194.145 780.948 OFFCURVE",
"197.044 783.739 OFFCURVE",
"200.549 783.739 CURVE SMOOTH",
"200.62 783.739 OFFCURVE",
"200.691 783.739 OFFCURVE",
"200.754 783.734 CURVE",
"204.354 783.625 OFFCURVE",
"207.184 780.618 OFFCURVE",
"207.077 777.018 CURVE SMOOTH",
"206.747 766.495 LINE SMOOTH",
"205.452 724.88 OFFCURVE",
"205.137 714.989 OFFCURVE",
"209.37 661.275 CURVE SMOOTH",
"213.496 608.946 OFFCURVE",
"211.137 576.479 OFFCURVE",
"207.549 527.334 CURVE SMOOTH",
"206.392 511.338 LINE SMOOTH",
"204.291 481.717 OFFCURVE",
"205.583 423.898 OFFCURVE",
"206.955 362.693 CURVE SMOOTH",
"208.365 299.594 OFFCURVE",
"209.828 234.359 OFFCURVE",
"207.332 200.033 CURVE",
"216.905 120.414 OFFCURVE",
"210.967 64.8633 OFFCURVE",
"202.748 -12 CURVE SMOOTH",
"201.494 -24 LINE SMOOTH",
"201.448 -24 OFFCURVE",
"201.352 -25 OFFCURVE",
"201.221 -25 CURVE SMOOTH",
"195.518 -43 OFFCURVE",
"190.869 -53 OFFCURVE",
"186.38 -63 CURVE SMOOTH",
"183.893 -69 OFFCURVE",
"181.542 -74 OFFCURVE",
"179.019 -81 CURVE SMOOTH",
"173.04 -96 OFFCURVE",
"163.468 -104 OFFCURVE",
"149.85 -104 CURVE SMOOTH"
);
}
);
width = 300;
}
);
unicode = 004A;
},
{
glyphname = K;
lastChange = "2013-05-16 04:19:24 +0000";
layers = (
{
anchors = (
{
name = bottom;
position = "{150, 0}";
},
{
name = top;
position = "{150, 500}";
}
);
layerId = "204CD004-05F3-49D2-8673-0D9320CD8B89";
name = Regular;
paths = (
{
closed = 1;
nodes = (
"101.959 -96 OFFCURVE",
"99.0459 -93 OFFCURVE",
"99.0459 -90 CURVE SMOOTH",
"99.0459 -61 OFFCURVE",
"99.5068 -36 OFFCURVE",
"99.959 -11 CURVE SMOOTH",
"100.949 42.9629 OFFCURVE",
"101.877 93.9707 OFFCURVE",
"97.4004 155.801 CURVE SMOOTH",
"92.7383 220.285 OFFCURVE",
"94.6699 276.199 OFFCURVE",
"119.242 339.482 CURVE SMOOTH",
"154.642 430.635 OFFCURVE",
"184.199 573.005 OFFCURVE",
"207.961 687.399 CURVE SMOOTH",
"215.056 721.552 OFFCURVE",
"221.757 753.812 OFFCURVE",
"228.053 782.155 CURVE SMOOTH",
"228.845 785.67 OFFCURVE",
"232.355 787.873 OFFCURVE",
"235.834 787.104 CURVE SMOOTH",
"239.355 786.323 OFFCURVE",
"241.569 782.839 OFFCURVE",
"240.789 779.32 CURVE SMOOTH",
"234.509 751.068 OFFCURVE",
"227.811 718.856 OFFCURVE",
"220.729 684.748 CURVE SMOOTH",
"196.876 569.877 OFFCURVE",
"167.182 426.922 OFFCURVE",
"131.407 334.764 CURVE SMOOTH",
"107.71 273.748 OFFCURVE",
"105.878 219.469 OFFCURVE",
"110.404 156.744 CURVE SMOOTH",
"114.927 94.3223 OFFCURVE",
"113.989 43.0293 OFFCURVE",
"113.002 -11 CURVE SMOOTH",
"112.55 -36 OFFCURVE",
"112.084 -62 OFFCURVE",
"112.084 -90 CURVE SMOOTH",
"112.084 -93 OFFCURVE",
"109.17 -96 OFFCURVE",
"105.567 -96 CURVE SMOOTH"
);
},
{
closed = 1;
nodes = (
"226.914 -115 OFFCURVE",
"224.268 -113 OFFCURVE",
"223.506 -110 CURVE SMOOTH",
"218.754 -91 OFFCURVE",
"213.573 -78 OFFCURVE",
"208.567 -65 CURVE SMOOTH",
"202.262 -49 OFFCURVE",
"196.307 -34 OFFCURVE",
"191.635 -10 CURVE SMOOTH",
"183.557 30.0625 OFFCURVE",
"174.739 64.4863 OFFCURVE",
"166.203 97.7793 CURVE SMOOTH",
"157.123 133.213 OFFCURVE",
"147.736 169.854 OFFCURVE",
"139.377 213.494 CURVE SMOOTH",
"135.572 233.445 OFFCURVE",
"120.275 267.44 OFFCURVE",
"105.502 283.088 CURVE SMOOTH",
"103.03 285.705 OFFCURVE",
"103.151 289.834 OFFCURVE",
"105.77 292.305 CURVE SMOOTH",
"108.393 294.785 OFFCURVE",
"112.514 294.666 OFFCURVE",
"114.992 292.041 CURVE SMOOTH",
"131.737 274.299 OFFCURVE",
"148.035 237.695 OFFCURVE",
"152.189 215.945 CURVE SMOOTH",
"160.473 172.703 OFFCURVE",
"169.809 136.26 OFFCURVE",
"178.843 101.016 CURVE SMOOTH",
"187.412 67.5547 OFFCURVE",
"196.276 32.9551 OFFCURVE",
"204.423 -8 CURVE SMOOTH",
"208.884 -30 OFFCURVE",
"214.622 -45 OFFCURVE",
"220.715 -61 CURVE SMOOTH",
"225.859 -74 OFFCURVE",
"231.181 -87 OFFCURVE",
"236.135 -106 CURVE SMOOTH",
"237.036 -110 OFFCURVE",
"234.939 -113 OFFCURVE",
"231.453 -114 CURVE SMOOTH",
"230.907 -114 OFFCURVE",
"230.352 -115 OFFCURVE",
"229.811 -115 CURVE SMOOTH"
);
},
{
closed = 1;
nodes = (
"98.2861 208.201 OFFCURVE",
"95.3662 211.121 OFFCURVE",
"95.3662 214.721 CURVE SMOOTH",
"95.3662 254.816 OFFCURVE",
"93.9521 337.369 OFFCURVE",
"92.5898 417.205 CURVE SMOOTH",
"91.4639 482.76 OFFCURVE",
"90.4072 544.678 OFFCURVE",
"90.2441 576.679 CURVE SMOOTH",
"90.0117 625.852 OFFCURVE",
"91.4111 675.805 OFFCURVE",
"92.7725 724.113 CURVE SMOOTH",
"93.3691 745.59 OFFCURVE",
"93.9746 767.071 OFFCURVE",
"94.4424 788.555 CURVE SMOOTH",
"94.5127 792.148 OFFCURVE",
"97.7314 794.797 OFFCURVE",
"101.1 794.932 CURVE",
"104.703 794.852 OFFCURVE",
"107.559 791.87 OFFCURVE",
"107.48 788.267 CURVE SMOOTH",
"107.011 766.761 OFFCURVE",
"106.409 745.253 OFFCURVE",
"105.807 723.744 CURVE SMOOTH",
"104.455 675.544 OFFCURVE",
"103.055 625.705 OFFCURVE",
"103.291 576.744 CURVE SMOOTH",
"103.45 544.822 OFFCURVE",
"104.506 482.941 OFFCURVE",
"105.628 417.428 CURVE SMOOTH",
"106.998 337.541 OFFCURVE",
"108.412 254.93 OFFCURVE",
"108.412 214.721 CURVE SMOOTH",
"108.412 211.121 OFFCURVE",
"105.49 208.201 OFFCURVE",
"101.889 208.201 CURVE SMOOTH"
);
}
);
width = 300;
}
);
unicode = 004B;
},
{
glyphname = L;
lastChange = "2013-05-16 04:19:06 +0000";
layers = (
{
anchors = (
{
name = bottom;
position = "{150, 0}";
},
{
name = top;
position = "{150, 500}";
}
);
layerId = "204CD004-05F3-49D2-8673-0D9320CD8B89";
name = Regular;
paths = (
{
closed = 1;
nodes = (
"149.455 -98 LINE SMOOTH",
"146.038 -98 OFFCURVE",
"143.201 -95 OFFCURVE",
"142.953 -92 CURVE SMOOTH",
"128.869 99.0781 OFFCURVE",
"137.398 582.54 OFFCURVE",
"145.714 777.492 CURVE SMOOTH",
"145.87 781.095 OFFCURVE",
"149.074 783.753 OFFCURVE",
"152.512 783.73 CURVE",
"156.111 783.577 OFFCURVE",
"158.899 780.538 OFFCURVE",
"158.745 776.938 CURVE SMOOTH",
"150.525 584.276 OFFCURVE",
"142.098 109.588 OFFCURVE",
"155.525 -85 CURVE",
"217.152 -85 LINE SMOOTH",
"220.756 -85 OFFCURVE",
"223.676 -88 OFFCURVE",
"223.676 -91 CURVE SMOOTH",
"223.676 -95 OFFCURVE",
"220.756 -98 OFFCURVE",
"217.152 -98 CURVE SMOOTH"
);
}
);
width = 300;
}
);
unicode = 004C;
},
{
glyphname = M;
lastChange = "2013-05-16 04:18:51 +0000";
layers = (
{
layerId = "204CD004-05F3-49D2-8673-0D9320CD8B89";
name = Regular;
paths = (
{
closed = 1;
nodes = (
"271.1 -99 OFFCURVE",
"268.275 -97 OFFCURVE",
"267.897 -93 CURVE SMOOTH",
"251.516 47.7988 OFFCURVE",
"247.039 250.113 OFFCURVE",
"243.445 412.676 CURVE SMOOTH",
"242.623 449.656 OFFCURVE",
"241.852 484.719 OFFCURVE",
"240.99 516.723 CURVE SMOOTH",
"239.189 584.062 OFFCURVE",
"239.496 624.455 OFFCURVE",
"242.342 689.602 CURVE SMOOTH",
"242.549 694.47 OFFCURVE",
"243.027 699.621 OFFCURVE",
"243.523 704.947 CURVE SMOOTH",
"245.457 725.823 OFFCURVE",
"247.461 747.363 OFFCURVE",
"235.376 764.889 CURVE",
"221.607 727.089 OFFCURVE",
"217.061 686.434 OFFCURVE",
"212.652 647.057 CURVE SMOOTH",
"209.381 617.849 OFFCURVE",
"206 587.646 OFFCURVE",
"198.915 558.552 CURVE SMOOTH",
"197.097 551.097 OFFCURVE",
"192.525 527.342 OFFCURVE",
"187.237 499.834 CURVE SMOOTH",
"176.521 444.102 OFFCURVE",
"163.177 374.74 OFFCURVE",
"156.871 355.945 CURVE SMOOTH",
"155.729 352.525 OFFCURVE",
"152.031 350.684 OFFCURVE",
"148.615 351.836 CURVE SMOOTH",
"145.199 352.98 OFFCURVE",
"143.358 356.678 OFFCURVE",
"144.506 360.092 CURVE SMOOTH",
"150.537 378.062 OFFCURVE",
"164.344 449.867 OFFCURVE",
"174.43 502.298 CURVE SMOOTH",
"179.973 531.112 OFFCURVE",
"184.347 553.873 OFFCURVE",
"186.236 561.639 CURVE SMOOTH",
"193.136 589.923 OFFCURVE",
"196.468 619.708 OFFCURVE",
"199.689 648.51 CURVE SMOOTH",
"204.407 690.646 OFFCURVE",
"209.287 734.221 OFFCURVE",
"225.323 775.163 CURVE SMOOTH",
"226.297 777.662 OFFCURVE",
"228.713 779.304 OFFCURVE",
"231.393 779.304 CURVE SMOOTH",
"237.555 779.304 LINE SMOOTH",
"239.487 779.304 OFFCURVE",
"241.314 778.452 OFFCURVE",
"242.551 776.971 CURVE SMOOTH",
"261.241 754.666 OFFCURVE",
"258.614 726.431 OFFCURVE",
"256.506 703.74 CURVE SMOOTH",
"256.033 698.637 OFFCURVE",
"255.572 693.696 OFFCURVE",
"255.368 689.03 CURVE SMOOTH",
"252.549 624.239 OFFCURVE",
"252.237 584.062 OFFCURVE",
"254.03 517.073 CURVE SMOOTH",
"254.893 485.051 OFFCURVE",
"255.664 449.969 OFFCURVE",
"256.48 412.963 CURVE SMOOTH",
"260.073 250.672 OFFCURVE",
"264.541 48.6953 OFFCURVE",
"280.849 -92 CURVE SMOOTH",
"281.264 -95 OFFCURVE",
"278.706 -99 OFFCURVE",
"275.123 -99 CURVE SMOOTH",
"274.867 -99 OFFCURVE",
"274.613 -99 OFFCURVE",
"274.366 -99 CURVE SMOOTH"
);
},
{
closed = 1;
nodes = (
"22.293 -108 OFFCURVE",
"19.377 -105 OFFCURVE",
"19.3477 -102 CURVE SMOOTH",
"17.0771 131.908 OFFCURVE",
"17.8691 374.047 OFFCURVE",
"38.8018 560.962 CURVE SMOOTH",
"40.7832 578.599 OFFCURVE",
"41.9922 597.816 OFFCURVE",
"43.2813 618.167 CURVE SMOOTH",
"46.3564 666.993 OFFCURVE",
"49.8477 722.339 OFFCURVE",
"65.7676 765.462 CURVE SMOOTH",
"65.877 765.756 OFFCURVE",
"66.0059 766.041 OFFCURVE",
"66.1543 766.316 CURVE SMOOTH",
"71.3535 775.894 LINE SMOOTH",
"72.3379 777.72 OFFCURVE",
"74.1396 778.965 OFFCURVE",
"76.1953 779.245 CURVE SMOOTH",
"78.3066 779.524 OFFCURVE",
"80.3223 778.808 OFFCURVE",
"81.7676 777.315 CURVE SMOOTH",
"92.4121 766.31 OFFCURVE",
"104.05 727.063 OFFCURVE",
"106.459 713.447 CURVE SMOOTH",
"112.158 681.497 OFFCURVE",
"118.957 656.142 OFFCURVE",
"125.521 631.62 CURVE SMOOTH",
"133.036 603.581 OFFCURVE",
"140.801 574.589 OFFCURVE",
"147.141 535.363 CURVE SMOOTH",
"147.396 533.787 OFFCURVE",
"147.666 527.052 OFFCURVE",
"148.631 501.193 CURVE SMOOTH",
"150.091 462.268 OFFCURVE",
"153.48 371.697 OFFCURVE",
"156.377 361.215 CURVE",
"157.776 358.728 OFFCURVE",
"157.416 355.518 OFFCURVE",
"155.301 353.404 CURVE SMOOTH",
"152.752 350.863 OFFCURVE",
"148.623 350.857 OFFCURVE",
"146.072 353.41 CURVE SMOOTH",
"142.855 356.633 OFFCURVE",
"140.914 358.578 OFFCURVE",
"135.602 500.705 CURVE SMOOTH",
"134.984 517.303 OFFCURVE",
"134.44 531.636 OFFCURVE",
"134.248 533.43 CURVE",
"128.031 571.854 OFFCURVE",
"120.348 600.521 OFFCURVE",
"112.928 628.244 CURVE SMOOTH",
"106.285 653.03 OFFCURVE",
"99.4199 678.662 OFFCURVE",
"93.625 711.162 CURVE SMOOTH",
"91.4473 723.406 OFFCURVE",
"84.0352 746.672 OFFCURVE",
"77.5996 759.846 CURVE",
"62.6777 718.689 OFFCURVE",
"59.4365 667.177 OFFCURVE",
"56.2949 617.345 CURVE SMOOTH",
"55.0029 596.833 OFFCURVE",
"53.7793 577.46 OFFCURVE",
"51.7715 559.509 CURVE SMOOTH",
"30.9063 373.287 OFFCURVE",
"30.127 131.625 OFFCURVE",
"32.3887 -102 CURVE SMOOTH",
"32.4189 -105 OFFCURVE",
"29.5293 -108 OFFCURVE",
"25.9316 -108 CURVE SMOOTH",
"25.9121 -108 OFFCURVE",
"25.8867 -108 OFFCURVE",
"25.8662 -108 CURVE SMOOTH"
);
}
);
width = 300;
}
);
unicode = 004D;
},
{
glyphname = N;
lastChange = "2013-05-16 03:38:00 +0000";
layers = (
{
anchors = (
{
name = bottom;
position = "{150, 0}";
},
{
name = top;
position = "{150, 500}";
}
);
layerId = "204CD004-05F3-49D2-8673-0D9320CD8B89";
name = Regular;
paths = (
{
closed = 1;
nodes = (
"49.9092 -91 OFFCURVE",
"47 -88 OFFCURVE",
"46.9297 -84 CURVE SMOOTH",
"46.3438 -54 OFFCURVE",
"47.7974 -5 OFFCURVE",
"48.9634 34.9512 CURVE SMOOTH",
"49.3149 46.8574 OFFCURVE",
"49.6279 57.6445 OFFCURVE",
"49.8467 66.3809 CURVE SMOOTH",
"51.644 138.82 OFFCURVE",
"49.7827 205.428 OFFCURVE",
"47.8198 275.949 CURVE SMOOTH",
"46.4902 323.467 OFFCURVE",
"45.1206 372.6 OFFCURVE",
"45.0034 423.295 CURVE SMOOTH",
"44.8413 487.033 OFFCURVE",
"50.7539 632.732 OFFCURVE",
"54.6641 729.154 CURVE SMOOTH",
"55.5039 749.878 OFFCURVE",
"56.2393 767.987 OFFCURVE",
"56.7822 782 CURVE SMOOTH",
"56.9185 785.594 OFFCURVE",
"59.957 788.5 OFFCURVE",
"63.5444 788.268 CURVE SMOOTH",
"67.1494 788.127 OFFCURVE",
"69.9541 785.102 OFFCURVE",
"69.8135 781.5 CURVE SMOOTH",
"69.2744 767.478 OFFCURVE",
"68.5361 749.36 OFFCURVE",
"67.6938 728.623 CURVE SMOOTH",
"63.7886 632.321 OFFCURVE",
"57.8828 486.781 OFFCURVE",
"58.0454 423.326 CURVE SMOOTH",
"58.1626 372.789 OFFCURVE",
"59.5317 323.746 OFFCURVE",
"60.8569 276.31 CURVE SMOOTH",
"62.7402 208.729 OFFCURVE",
"64.6895 138.852 OFFCURVE",
"62.8804 66.0625 CURVE SMOOTH",
"62.6665 57.3145 OFFCURVE",
"62.3491 46.498 OFFCURVE",
"62.002 34.5664 CURVE SMOOTH",
"60.8984 -3 OFFCURVE",
"59.3892 -54 OFFCURVE",
"59.9712 -84 CURVE SMOOTH",
"60.041 -88 OFFCURVE",
"57.1812 -90 OFFCURVE",
"53.5781 -91 CURVE SMOOTH",
"53.5332 -91 OFFCURVE",
"53.4897 -91 OFFCURVE",
"53.4453 -91 CURVE SMOOTH"
);
},
{
closed = 1;
nodes = (
"199.568 -88 OFFCURVE",
"199.298 -88 OFFCURVE",
"199.026 -88 CURVE SMOOTH",
"196.133 -87 OFFCURVE",
"193.826 -85 OFFCURVE",
"193.387 -82 CURVE SMOOTH",
"193.107 -80 OFFCURVE",
"165.421 100.43 OFFCURVE",
"156.297 149.422 CURVE SMOOTH",
"137.325 251.158 OFFCURVE",
"122.687 345.576 OFFCURVE",
"107.185 445.541 CURVE SMOOTH",
"101.375 483.008 OFFCURVE",
"95.4971 520.912 OFFCURVE",
"89.3042 559.723 CURVE SMOOTH",
"88.2856 566.139 OFFCURVE",
"86.791 581.22 OFFCURVE",
"84.7192 602.087 CURVE SMOOTH",
"79.5322 654.476 OFFCURVE",
"68.7358 763.472 OFFCURVE",
"58.0596 777.866 CURVE SMOOTH",
"55.9116 780.76 OFFCURVE",
"56.5166 784.837 OFFCURVE",
"59.4111 786.983 CURVE SMOOTH",
"62.3125 789.123 OFFCURVE",
"66.3872 788.526 OFFCURVE",
"68.5361 785.632 CURVE SMOOTH",
"80.3765 769.669 OFFCURVE",
"89.0903 690.313 OFFCURVE",
"97.6982 603.375 CURVE SMOOTH",
"99.6709 583.504 OFFCURVE",
"101.223 567.808 OFFCURVE",
"102.179 561.775 CURVE SMOOTH",
"108.382 522.951 OFFCURVE",
"114.257 485.033 OFFCURVE",
"120.077 447.541 CURVE SMOOTH",
"135.557 347.674 OFFCURVE",
"150.183 253.344 OFFCURVE",
"169.113 151.812 CURVE SMOOTH",
"175.41 118.021 OFFCURVE",
"190.457 22.0898 OFFCURVE",
"199.352 -35 CURVE",
"203.748 22.998 OFFCURVE",
"207.105 109.717 OFFCURVE",
"207.568 142.77 CURVE SMOOTH",
"208.773 228.395 OFFCURVE",
"210.632 329.594 OFFCURVE",
"212.678 420.432 CURVE SMOOTH",
"213.661 463.785 OFFCURVE",
"213.564 505.072 OFFCURVE",
"213.475 544.996 CURVE SMOOTH",
"213.292 624.817 OFFCURVE",
"213.115 700.208 OFFCURVE",
"221.154 785.574 CURVE SMOOTH",
"221.495 789.156 OFFCURVE",
"224.631 791.915 OFFCURVE",
"228.257 791.45 CURVE SMOOTH",
"231.845 791.111 OFFCURVE",
"234.476 787.936 OFFCURVE",
"234.14 784.349 CURVE SMOOTH",
"226.16 699.607 OFFCURVE",
"226.329 624.525 OFFCURVE",
"226.514 545.029 CURVE SMOOTH",
"226.611 505.021 OFFCURVE",
"226.706 463.65 OFFCURVE",
"225.718 420.145 CURVE SMOOTH",
"223.672 329.342 OFFCURVE",
"221.81 228.176 OFFCURVE",
"220.608 142.594 CURVE SMOOTH",
"220.019 100.238 OFFCURVE",
"214.679 -30 OFFCURVE",
"208.469 -77 CURVE SMOOTH",
"208.395 -77 OFFCURVE",
"208.242 -78 OFFCURVE",
"208.013 -79 CURVE SMOOTH",
"205.843 -84 LINE SMOOTH",
"204.811 -86 OFFCURVE",
"202.427 -88 OFFCURVE",
"199.836 -88 CURVE SMOOTH"
);
}
);
width = 300;
}
);
unicode = 004E;
},
{
glyphname = O;
lastChange = "2013-05-16 04:17:29 +0000";
layers = (
{
anchors = (
{
name = top;
position = "{150, 500}";
}
);
layerId = "204CD004-05F3-49D2-8673-0D9320CD8B89";
name = Regular;
paths = (
{
closed = 1;
nodes = (
"138.371 -96 OFFCURVE",
"137.494 -96 OFFCURVE",
"136.672 -95 CURVE SMOOTH",
"94.9639 -77 OFFCURVE",
"91.4316 -39 OFFCURVE",
"88.8569 -11 CURVE SMOOTH",
"85.98 19.793 OFFCURVE",
"85.2622 51.4941 OFFCURVE",
"84.5688 82.1641 CURVE SMOOTH",
"84.3013 94.0781 OFFCURVE",
"84.0254 105.994 OFFCURVE",
"83.6353 117.896 CURVE SMOOTH",
"81.2725 189.961 OFFCURVE",
"85.1123 277.389 OFFCURVE",
"88.8242 361.928 CURVE SMOOTH",
"91.9702 433.685 OFFCURVE",
"95.229 507.881 OFFCURVE",
"94.4321 569.581 CURVE SMOOTH",
"93.543 638.014 OFFCURVE",
"101.767 691.522 OFFCURVE",
"120.321 737.969 CURVE SMOOTH",
"128.675 758.861 OFFCURVE",
"140.247 781.227 OFFCURVE",
"173.47 778.682 CURVE SMOOTH",
"203.414 776.402 OFFCURVE",
"221.702 759.606 OFFCURVE",
"224.967 731.409 CURVE SMOOTH",
"225.718 724.915 OFFCURVE",
"226.855 718.653 OFFCURVE",
"228.06 712.027 CURVE SMOOTH",
"230.695 697.533 OFFCURVE",
"233.418 682.542 OFFCURVE",
"231.668 665.459 CURVE SMOOTH",
"230.27 651.787 OFFCURVE",
"228.863 638.656 OFFCURVE",
"227.498 625.916 CURVE SMOOTH",
"219.436 550.598 OFFCURVE",
"213.07 491.115 OFFCURVE",
"216.301 411.379 CURVE SMOOTH",
"216.553 381.633 OFFCURVE",
"212.045 316.932 OFFCURVE",
"208.065 259.834 CURVE SMOOTH",
"205.116 217.543 OFFCURVE",
"202.337 177.602 OFFCURVE",
"201.79 156.834 CURVE SMOOTH",
"200.085 91.1563 OFFCURVE",
"195.986 49.0234 OFFCURVE",
"187.461 -21 CURVE SMOOTH",
"184.529 -45 OFFCURVE",
"179.621 -85 OFFCURVE",
"141.03 -96 CURVE SMOOTH",
"140.447 -96 OFFCURVE",
"139.847 -96 OFFCURVE",
"139.253 -96 CURVE SMOOTH"
);
},
{
closed = 1;
nodes = (
"149.158 765.838 OFFCURVE",
"140.91 754.342 OFFCURVE",
"132.437 733.123 CURVE SMOOTH",
"114.537 688.333 OFFCURVE",
"106.606 636.415 OFFCURVE",
"107.474 569.743 CURVE SMOOTH",
"108.276 507.674 OFFCURVE",
"105.013 433.293 OFFCURVE",
"101.853 361.361 CURVE SMOOTH",
"98.1538 277.055 OFFCURVE",
"94.3257 189.887 OFFCURVE",
"96.6729 118.324 CURVE SMOOTH",
"97.0659 106.381 OFFCURVE",
"97.333 94.4199 OFFCURVE",
"97.6084 82.4531 CURVE SMOOTH",
"98.2979 52.0176 OFFCURVE",
"99.0098 20.5449 OFFCURVE",
"101.841 -10 CURVE SMOOTH",
"104.831 -42 OFFCURVE",
"109.564 -68 OFFCURVE",
"139.685 -82 CURVE",
"165.711 -74 OFFCURVE",
"171.035 -47 OFFCURVE",
"174.514 -19 CURVE SMOOTH",
"182.989 50.1738 OFFCURVE",
"187.062 92.0254 OFFCURVE",
"188.752 157.172 CURVE SMOOTH",
"189.305 178.221 OFFCURVE",
"192.096 218.305 OFFCURVE",
"195.059 260.748 CURVE SMOOTH",
"199.016 317.594 OFFCURVE",
"203.503 382.033 OFFCURVE",
"203.264 411.072 CURVE SMOOTH",
"200 491.547 OFFCURVE",
"206.736 554.46 OFFCURVE",
"214.528 627.303 CURVE SMOOTH",
"215.892 640.035 OFFCURVE",
"217.298 653.14 OFFCURVE",
"218.696 666.792 CURVE SMOOTH",
"220.256 682.036 OFFCURVE",
"217.811 695.472 OFFCURVE",
"215.227 709.689 CURVE SMOOTH",
"214.039 716.233 OFFCURVE",
"212.812 722.997 OFFCURVE",
"212.016 729.914 CURVE SMOOTH",
"209.476 751.839 OFFCURVE",
"196.173 763.866 OFFCURVE",
"172.48 765.674 CURVE SMOOTH",
"171.078 765.788 OFFCURVE",
"169.719 765.838 OFFCURVE",
"168.416 765.838 CURVE SMOOTH"
);
}
);
width = 300;
}
);
unicode = 004F;
},
{
glyphname = P;
lastChange = "2013-05-16 04:17:14 +0000";
layers = (
{
layerId = "204CD004-05F3-49D2-8673-0D9320CD8B89";
name = Regular;
paths = (
{
closed = 1;
nodes = (
"99.7461 -94 OFFCURVE",
"96.8711 -92 OFFCURVE",
"96.6836 -88 CURVE SMOOTH",
"96.2334 -80 OFFCURVE",
"96.4541 -73 OFFCURVE",
"96.6748 -66 CURVE SMOOTH",
"96.8379 -61 OFFCURVE",
"97 -57 OFFCURVE",
"96.8379 -51 CURVE SMOOTH",
"93.0674 68.3633 OFFCURVE",
"102.249 230.936 OFFCURVE",
"110.349 374.367 CURVE SMOOTH",
"114.215 442.793 OFFCURVE",
"117.864 507.421 OFFCURVE",
"119.933 563.215 CURVE SMOOTH",
"121.127 595.415 OFFCURVE",
"123.804 621.34 OFFCURVE",
"126.391 646.413 CURVE SMOOTH",
"128.896 670.599 OFFCURVE",
"131.474 695.612 OFFCURVE",
"132.746 726.401 CURVE SMOOTH",
"134.086 759.236 OFFCURVE",
"148.904 767.255 OFFCURVE",
"175.782 770.548 CURVE SMOOTH",
"192.459 772.609 OFFCURVE",
"207.725 768.12 OFFCURVE",
"219.871 757.589 CURVE SMOOTH",
"237.061 742.694 OFFCURVE",
"246.88 716.85 OFFCURVE",
"247.537 684.822 CURVE SMOOTH",
"249.122 606.221 OFFCURVE",
"241.73 544.748 OFFCURVE",
"233.165 473.565 CURVE SMOOTH",
"230.912 454.797 OFFCURVE",
"228.57 435.375 OFFCURVE",
"226.303 414.822 CURVE SMOOTH",
"222.604 381.316 OFFCURVE",
"218.414 343.353 OFFCURVE",
"179.364 323.156 CURVE SMOOTH",
"167.229 316.879 OFFCURVE",
"153.509 314.266 OFFCURVE",
"140.243 311.748 CURVE SMOOTH",
"134.533 310.656 OFFCURVE",
"128.626 309.531 OFFCURVE",
"123.069 308.145 CURVE SMOOTH",
"121.924 307.852 OFFCURVE",
"120.774 307.893 OFFCURVE",
"119.709 308.19 CURVE",
"112.83 182.799 OFFCURVE",
"106.688 50.3594 OFFCURVE",
"109.873 -51 CURVE SMOOTH",
"110.047 -57 OFFCURVE",
"109.884 -62 OFFCURVE",
"109.71 -67 CURVE SMOOTH",
"109.498 -73 OFFCURVE",
"109.286 -80 OFFCURVE",
"109.704 -88 CURVE SMOOTH",
"109.902 -91 OFFCURVE",
"107.139 -94 OFFCURVE",
"103.546 -94 CURVE SMOOTH",
"103.423 -94 OFFCURVE",
"103.306 -94 OFFCURVE",
"103.188 -94 CURVE SMOOTH"
);
},
{
closed = 1;
nodes = (
"181.613 758.003 OFFCURVE",
"179.513 757.868 OFFCURVE",
"177.368 757.604 CURVE SMOOTH",
"152.612 754.573 OFFCURVE",
"146.709 748.635 OFFCURVE",
"145.775 725.867 CURVE SMOOTH",
"144.486 694.676 OFFCURVE",
"141.882 669.455 OFFCURVE",
"139.37 645.07 CURVE SMOOTH",
"136.801 620.215 OFFCURVE",
"134.149 594.503 OFFCURVE",
"132.965 562.732 CURVE SMOOTH",
"130.891 506.811 OFFCURVE",
"127.239 442.131 OFFCURVE",
"123.372 373.631 CURVE SMOOTH",
"122.395 356.31 OFFCURVE",
"121.398 338.703 OFFCURVE",
"120.413 320.926 CURVE",
"126.172 322.342 OFFCURVE",
"132.083 323.473 OFFCURVE",
"137.808 324.557 CURVE SMOOTH",
"150.723 327.016 OFFCURVE",
"162.927 329.342 OFFCURVE",
"173.373 334.738 CURVE SMOOTH",
"203.929 350.543 OFFCURVE",
"209.037 377.279 OFFCURVE",
"213.339 416.246 CURVE SMOOTH",
"215.613 436.852 OFFCURVE",
"217.954 456.312 OFFCURVE",
"220.216 475.123 CURVE SMOOTH",
"228.721 545.817 OFFCURVE",
"236.067 606.87 OFFCURVE",
"234.494 684.553 CURVE SMOOTH",
"233.919 712.85 OFFCURVE",
"225.691 735.289 OFFCURVE",
"211.33 747.735 CURVE SMOOTH",
"203.454 754.558 OFFCURVE",
"194.175 758.003 OFFCURVE",
"183.664 758.003 CURVE SMOOTH"
);
}
);
width = 300;
}
);
unicode = 0050;
},
{
glyphname = Q;
lastChange = "2013-05-16 23:24:56 +0000";
layers = (
{
layerId = "204CD004-05F3-49D2-8673-0D9320CD8B89";
name = Regular;
paths = (
{
closed = 1;
nodes = (
"163.963 -91 OFFCURVE",
"163.288 -91 OFFCURVE",
"162.64 -91 CURVE SMOOTH",
"129.357 -80 OFFCURVE",
"125.991 -50 OFFCURVE",
"123.287 -25 CURVE SMOOTH",
"102.633 162.777 OFFCURVE",
"101.067 458.547 OFFCURVE",
"119.759 634.601 CURVE SMOOTH",
"120.593 642.442 OFFCURVE",
"121.145 650.303 OFFCURVE",
"121.726 658.632 CURVE SMOOTH",
"124.218 694.261 OFFCURVE",
"126.802 731.103 OFFCURVE",
"151.847 762.478 CURVE SMOOTH",
"162.714 776.092 OFFCURVE",
"172.18 784.965 OFFCURVE",
"182.756 783.831 CURVE SMOOTH",
"194.106 782.634 OFFCURVE",
"201.912 770.003 OFFCURVE",
"208.657 756.521 CURVE SMOOTH",
"230.276 713.36 OFFCURVE",
"239.548 662.678 OFFCURVE",
"236.992 601.584 CURVE SMOOTH",
"232.827 501.864 OFFCURVE",
"229.562 438.904 OFFCURVE",
"222.315 350.84 CURVE SMOOTH",
"221.636 342.578 OFFCURVE",
"220.691 315.793 OFFCURVE",
"219.493 281.893 CURVE SMOOTH",
"216.363 193.092 OFFCURVE",
"211.751 62.2148 OFFCURVE",
"204.307 20.2949 CURVE",
"204.883 19.1582 OFFCURVE",
"205.124 17.8359 OFFCURVE",
"204.936 16.4844 CURVE SMOOTH",
"203.718 7.6582 OFFCURVE",
"205.643 -3 OFFCURVE",
"207.688 -14 CURVE SMOOTH",
"212.957 -44 OFFCURVE",
"219.519 -80 OFFCURVE",
"165.991 -91 CURVE SMOOTH",
"165.545 -91 OFFCURVE",
"165.09 -91 OFFCURVE",
"164.635 -91 CURVE SMOOTH"
);
},
{
closed = 1;
nodes = (
"177.173 770.879 OFFCURVE",
"170.797 765.321 OFFCURVE",
"162.041 754.342 CURVE SMOOTH",
"139.531 726.141 OFFCURVE",
"137.094 691.355 OFFCURVE",
"134.74 657.716 CURVE SMOOTH",
"134.172 649.643 OFFCURVE",
"133.585 641.295 OFFCURVE",
"132.73 633.227 CURVE SMOOTH",
"114.122 457.943 OFFCURVE",
"115.685 163.426 OFFCURVE",
"136.211 -23 CURVE SMOOTH",
"138.841 -47 OFFCURVE",
"141.288 -70 OFFCURVE",
"165.01 -78 CURVE",
"204.319 -69 OFFCURVE",
"200.13 -46 OFFCURVE",
"194.852 -17 CURVE SMOOTH",
"193.278 -8 OFFCURVE",
"191.667 0.998047 OFFCURVE",
"191.531 9.44922 CURVE",
"189.975 11.0742 OFFCURVE",
"189.307 13.4668 OFFCURVE",
"189.977 15.7852 CURVE SMOOTH",
"198.044 43.5137 OFFCURVE",
"203.311 193.018 OFFCURVE",
"206.464 282.35 CURVE SMOOTH",
"207.713 317.766 OFFCURVE",
"208.612 343.346 OFFCURVE",
"209.318 351.908 CURVE SMOOTH",
"216.548 439.754 OFFCURVE",
"219.803 502.582 OFFCURVE",
"223.961 602.135 CURVE SMOOTH",
"226.453 661.776 OFFCURVE",
"217.886 708.971 OFFCURVE",
"196.994 750.68 CURVE SMOOTH",
"190.492 763.665 OFFCURVE",
"185.243 770.452 OFFCURVE",
"181.394 770.858 CURVE SMOOTH",
"181.266 770.873 OFFCURVE",
"181.138 770.879 OFFCURVE",
"181.003 770.879 CURVE SMOOTH"
);
},
{
closed = 1;
nodes = (
"246.905 -72 OFFCURVE",
"244.754 -71 OFFCURVE",
"243.531 -69 CURVE SMOOTH",
"221.837 -33 OFFCURVE",
"191.885 13.6582 OFFCURVE",
"172.348 34.7207 CURVE SMOOTH",
"169.895 37.3574 OFFCURVE",
"170.052 41.4863 OFFCURVE",
"172.692 43.9355 CURVE SMOOTH",
"175.339 46.3867 OFFCURVE",
"179.459 46.2383 OFFCURVE",
"181.911 43.5879 CURVE SMOOTH",
"202.188 21.7266 OFFCURVE",
"232.671 -26 OFFCURVE",
"254.664 -62 CURVE SMOOTH",
"256.54 -65 OFFCURVE",
"255.566 -69 OFFCURVE",
"252.488 -71 CURVE SMOOTH",
"251.43 -72 OFFCURVE",
"250.261 -72 OFFCURVE",
"249.108 -72 CURVE SMOOTH"
);
}
);
width = 300;
}
);
unicode = 0051;
},
{
glyphname = R;
lastChange = "2013-05-16 04:16:45 +0000";
layers = (
{
anchors = (
{
name = bottom;
position = "{150, 0}";
},
{
name = top;
position = "{150, 500}";
}
);
layerId = "204CD004-05F3-49D2-8673-0D9320CD8B89";
name = Regular;
paths = (
{
closed = 1;
nodes = (
"111.295 -82 OFFCURVE",
"108.37 -79 OFFCURVE",
"108.37 -76 CURVE",
"108.211 121.336 OFFCURVE",
"108.19 424.484 OFFCURVE",
"108.315 629.469 CURVE SMOOTH",
"108.339 674.335 OFFCURVE",
"110.566 722.899 OFFCURVE",
"115.142 777.944 CURVE SMOOTH",
"115.383 780.884 OFFCURVE",
"117.574 783.292 OFFCURVE",
"120.475 783.823 CURVE SMOOTH",
"152.303 789.56 OFFCURVE",
"180.116 784.796 OFFCURVE",
"198.821 770.415 CURVE SMOOTH",
"212.548 759.87 OFFCURVE",
"220.584 744.73 OFFCURVE",
"222.068 726.635 CURVE SMOOTH",
"233.493 587.815 OFFCURVE",
"221.893 450.965 OFFCURVE",
"207.921 311.305 CURVE SMOOTH",
"202.859 242.727 OFFCURVE",
"157.279 234.434 OFFCURVE",
"121.287 235.594 CURVE",
"121.3 122.777 OFFCURVE",
"121.342 12.8301 OFFCURVE",
"121.412 -76 CURVE SMOOTH",
"121.412 -79 OFFCURVE",
"118.497 -82 OFFCURVE",
"114.897 -82 CURVE SMOOTH"
);
},
{
closed = 1;
nodes = (
"156.047 247.6 OFFCURVE",
"190.71 255.32 OFFCURVE",
"194.933 312.434 CURVE SMOOTH",
"208.852 451.637 OFFCURVE",
"220.398 587.843 OFFCURVE",
"209.071 725.569 CURVE SMOOTH",
"207.895 739.893 OFFCURVE",
"201.605 751.826 OFFCURVE",
"190.875 760.071 CURVE SMOOTH",
"176.047 771.462 OFFCURVE",
"153.748 775.561 OFFCURVE",
"127.715 771.781 CURVE",
"123.464 719.193 OFFCURVE",
"121.376 672.581 OFFCURVE",
"121.354 629.454 CURVE SMOOTH",
"121.296 520.114 OFFCURVE",
"121.266 382.838 OFFCURVE",
"121.279 248.633 CURVE"
);
},
{
closed = 1;
nodes = (
"234.85 -83 OFFCURVE",
"232.531 -81 OFFCURVE",
"231.396 -79 CURVE SMOOTH",
"208.909 -33 OFFCURVE",
"191.979 24.8438 OFFCURVE",
"175.604 81.0859 CURVE SMOOTH",
"159.382 136.812 OFFCURVE",
"142.607 194.428 OFFCURVE",
"120.607 239.168 CURVE SMOOTH",
"119.026 242.406 OFFCURVE",
"120.357 246.312 OFFCURVE",
"123.584 247.9 CURVE SMOOTH",
"126.854 249.48 OFFCURVE",
"130.736 248.152 OFFCURVE",
"132.316 244.926 CURVE SMOOTH",
"154.81 199.16 OFFCURVE",
"171.751 140.988 OFFCURVE",
"188.123 84.7324 CURVE SMOOTH",
"204.345 29.0215 OFFCURVE",
"221.122 -29 OFFCURVE",
"243.105 -73 CURVE SMOOTH",
"244.686 -77 OFFCURVE",
"243.355 -80 OFFCURVE",
"240.128 -82 CURVE SMOOTH",
"239.201 -83 OFFCURVE",
"238.217 -83 OFFCURVE",
"237.258 -83 CURVE SMOOTH"
);
}
);
width = 300;
}
);
unicode = 0052;
},
{
glyphname = S;
lastChange = "2013-05-16 04:16:32 +0000";
layers = (
{
anchors = (
{
name = bottom;
position = "{150, 0}";
},
{
name = top;
position = "{150, 500}";
}
);
layerId = "204CD004-05F3-49D2-8673-0D9320CD8B89";
name = Regular;
paths = (
{
closed = 1;
nodes = (
"149.349 -88 OFFCURVE",
"148.604 -88 OFFCURVE",
"147.864 -88 CURVE SMOOTH",
"117.21 -86 OFFCURVE",
"95.8066 -47 OFFCURVE",
"95.8066 5.61719 CURVE SMOOTH",
"95.8066 79.2461 LINE SMOOTH",
"95.8066 82.8555 OFFCURVE",
"98.7246 85.7734 OFFCURVE",
"102.326 85.7734 CURVE SMOOTH",
"105.934 85.7734 OFFCURVE",
"108.849 82.8555 OFFCURVE",
"108.849 79.2461 CURVE SMOOTH",
"108.849 5.61719 LINE SMOOTH",
"108.849 -40 OFFCURVE",
"125.668 -74 OFFCURVE",
"148.837 -75 CURVE SMOOTH",
"168.276 -77 OFFCURVE",
"193.575 -44 OFFCURVE",
"197.032 1.5293 CURVE SMOOTH",
"203.09 80.6211 OFFCURVE",
"207.466 137.771 OFFCURVE",
"206.835 219.314 CURVE SMOOTH",
"206.485 264.152 OFFCURVE",
"194.64 303.664 OFFCURVE",
"170.627 340.103 CURVE SMOOTH",
"168.496 343.332 OFFCURVE",
"166.282 346.506 OFFCURVE",
"164.06 349.674 CURVE SMOOTH",
"154.146 363.834 OFFCURVE",
"143.899 378.473 OFFCURVE",
"141.701 398.105 CURVE SMOOTH",
"132.331 481.59 OFFCURVE",
"136.229 617.465 OFFCURVE",
"138.56 698.64 CURVE SMOOTH",
"138.665 702.353 OFFCURVE",
"138.701 706.205 OFFCURVE",
"138.741 710.157 CURVE SMOOTH",
"138.961 732.414 OFFCURVE",
"139.199 757.637 OFFCURVE",
"151.168 777.062 CURVE SMOOTH",
"158.343 788.708 OFFCURVE",
"168.089 794.074 OFFCURVE",
"180.99 793.242 CURVE SMOOTH",
"185.406 793.028 LINE SMOOTH",
"198.082 792.452 OFFCURVE",
"210.064 791.907 OFFCURVE",
"218.691 776.889 CURVE SMOOTH",
"218.996 776.358 OFFCURVE",
"219.235 775.776 OFFCURVE",
"219.375 775.169 CURVE SMOOTH",
"228.491 737.407 OFFCURVE",
"229.502 697.922 OFFCURVE",
"230.486 659.742 CURVE SMOOTH",
"231.02 638.837 OFFCURVE",
"231.578 617.212 OFFCURVE",
"233.442 595.966 CURVE SMOOTH",
"233.76 592.371 OFFCURVE",
"231.106 589.206 OFFCURVE",
"227.518 588.893 CURVE SMOOTH",
"223.906 588.524 OFFCURVE",
"220.769 591.233 OFFCURVE",
"220.453 594.82 CURVE SMOOTH",
"218.555 616.474 OFFCURVE",
"217.994 638.298 OFFCURVE",
"217.451 659.407 CURVE SMOOTH",
"216.452 698.299 OFFCURVE",
"215.505 735.051 OFFCURVE",
"206.922 771.169 CURVE",
"201.989 779.222 OFFCURVE",
"196.472 779.471 OFFCURVE",
"184.811 779.998 CURVE SMOOTH",
"180.236 780.228 LINE SMOOTH",
"172.2 780.725 OFFCURVE",
"166.879 777.704 OFFCURVE",
"162.276 770.223 CURVE SMOOTH",
"152.211 753.888 OFFCURVE",
"151.984 730.584 OFFCURVE",
"151.785 710.032 CURVE SMOOTH",
"151.739 706.003 OFFCURVE",
"151.705 702.061 OFFCURVE",
"151.6 698.271 CURVE SMOOTH",
"149.275 617.432 OFFCURVE",
"145.392 482.133 OFFCURVE",
"154.665 399.559 CURVE SMOOTH",
"156.49 383.227 OFFCURVE",
"165.355 370.566 OFFCURVE",
"174.744 357.152 CURVE SMOOTH",
"177.031 353.883 OFFCURVE",
"179.322 350.613 OFFCURVE",
"181.514 347.283 CURVE SMOOTH",
"206.963 308.678 OFFCURVE",
"219.509 266.846 OFFCURVE",
"219.875 219.418 CURVE SMOOTH",
"220.513 137.322 OFFCURVE",
"216.119 79.9492 OFFCURVE",
"210.036 0.53125 CURVE SMOOTH",
"206.325 -48 OFFCURVE",
"178.628 -88 OFFCURVE",
"150.086 -88 CURVE SMOOTH"
);
}
);
width = 300;
}
);
unicode = 0053;
},
{
glyphname = T;
lastChange = "2013-05-16 04:16:16 +0000";
layers = (
{
anchors = (
{
name = bottom;
position = "{150, 0}";
},
{
name = center;
position = "{150, 250}";
},
{
name = top;
position = "{150, 500}";
}
);
layerId = "204CD004-05F3-49D2-8673-0D9320CD8B89";
name = Regular;
paths = (
{
closed = 1;
nodes = (
"178.735 -82 OFFCURVE",
"175.868 -79 OFFCURVE",
"175.629 -76 CURVE SMOOTH",
"174.197 -55 OFFCURVE",
"172.502 -35 OFFCURVE",
"170.809 -14 CURVE SMOOTH",
"167.087 30.459 OFFCURVE",
"163.229 76.8398 OFFCURVE",
"162.418 122.615 CURVE SMOOTH",
"161.499 174.553 OFFCURVE",
"161.849 234.76 OFFCURVE",
"162.219 298.504 CURVE SMOOTH",
"162.711 381.871 OFFCURVE",
"163.214 468.066 OFFCURVE",
"160.711 537.146 CURVE SMOOTH",
"157.475 625.948 OFFCURVE",
"156.556 685.978 OFFCURVE",
"171.096 770.673 CURVE SMOOTH",
"171.702 774.225 OFFCURVE",
"175.102 776.604 OFFCURVE",
"178.625 776.002 CURVE SMOOTH",
"182.182 775.393 OFFCURVE",
"184.561 772.017 OFFCURVE",
"183.948 768.474 CURVE SMOOTH",
"169.625 685.014 OFFCURVE",
"170.539 625.581 OFFCURVE",
"173.739 537.616 CURVE SMOOTH",
"176.254 468.266 OFFCURVE",
"175.752 381.922 OFFCURVE",
"175.262 298.43 CURVE SMOOTH",
"174.893 234.76 OFFCURVE",
"174.541 174.633 OFFCURVE",
"175.455 122.844 CURVE SMOOTH",
"176.269 77.4922 OFFCURVE",
"180.102 31.332 OFFCURVE",
"183.807 -13 CURVE SMOOTH",
"185.511 -34 OFFCURVE",
"187.213 -54 OFFCURVE",
"188.642 -75 CURVE SMOOTH",
"188.892 -78 OFFCURVE",
"186.186 -81 OFFCURVE",
"182.586 -82 CURVE SMOOTH",
"182.436 -82 OFFCURVE",
"182.279 -82 OFFCURVE",
"182.127 -82 CURVE SMOOTH"
);
},
{
closed = 1;
nodes = (
"125.57 767.522 OFFCURVE",
"121.816 767.562 OFFCURVE",
"117.99 767.648 CURVE SMOOTH",
"114.394 767.737 OFFCURVE",
"111.542 770.717 OFFCURVE",
"111.622 774.324 CURVE SMOOTH",
"111.707 777.923 OFFCURVE",
"114.74 780.698 OFFCURVE",
"118.294 780.691 CURVE SMOOTH",
"136.359 780.263 OFFCURVE",
"152.86 781 OFFCURVE",
"167.412 781.647 CURVE SMOOTH",
"187.967 782.545 OFFCURVE",
"205.711 783.35 OFFCURVE",
"220.592 780.585 CURVE SMOOTH",
"224.132 779.932 OFFCURVE",
"226.474 776.521 OFFCURVE",
"225.815 772.982 CURVE SMOOTH",
"225.15 769.441 OFFCURVE",
"221.719 767.1 OFFCURVE",
"218.211 767.756 CURVE SMOOTH",
"204.811 770.238 OFFCURVE",
"187.73 769.485 OFFCURVE",
"167.988 768.621 CURVE SMOOTH",
"156.274 768.095 OFFCURVE",
"143.331 767.522 OFFCURVE",
"129.243 767.522 CURVE SMOOTH"
);
}
);
width = 300;
}
);
unicode = 0054;
},
{
glyphname = U;
lastChange = "2013-05-16 04:15:58 +0000";
layers = (
{
anchors = (
{
name = ogonek;
position = "{270, 10}";
},
{
name = top;
position = "{150, 500}";
}
);
layerId = "204CD004-05F3-49D2-8673-0D9320CD8B89";
name = Regular;
paths = (
{
closed = 1;
nodes = (
"105.572 -76 OFFCURVE",
"102.198 -17 OFFCURVE",
"100.574 11.7617 CURVE SMOOTH",
"100.363 15.4453 OFFCURVE",
"100.184 18.6934 OFFCURVE",
"99.9395 21.3281 CURVE SMOOTH",
"93.6338 87.8555 OFFCURVE",
"92.2402 190.641 OFFCURVE",
"91.3203 258.656 CURVE SMOOTH",
"91.2637 262.756 LINE SMOOTH",
"89.6816 379.191 OFFCURVE",
"91.6055 531.891 OFFCURVE",
"93.3096 666.611 CURVE SMOOTH",
"93.8389 709.279 OFFCURVE",
"94.3574 750.008 OFFCURVE",
"94.7266 787.023 CURVE SMOOTH",
"94.7666 790.622 OFFCURVE",
"97.834 793.493 OFFCURVE",
"101.311 793.478 CURVE SMOOTH",
"104.918 793.442 OFFCURVE",
"107.807 790.496 OFFCURVE",
"107.77 786.893 CURVE SMOOTH",
"107.402 749.869 OFFCURVE",
"106.885 709.123 OFFCURVE",
"106.35 666.458 CURVE SMOOTH",
"104.648 531.808 OFFCURVE",
"102.725 379.199 OFFCURVE",
"104.305 262.932 CURVE SMOOTH",
"104.361 258.828 LINE SMOOTH",
"105.28 191.029 OFFCURVE",
"106.665 88.5645 OFFCURVE",
"112.917 22.5625 CURVE SMOOTH",
"113.176 19.7852 OFFCURVE",
"113.375 16.3652 OFFCURVE",
"113.597 12.5 CURVE SMOOTH",
"115.672 -24 OFFCURVE",
"120.662 -63 OFFCURVE",
"153.752 -63 CURVE SMOOTH",
"195.044 -63 OFFCURVE",
"203.809 -21 OFFCURVE",
"206.87 20.1543 CURVE",
"203.765 107.582 OFFCURVE",
"207.354 213.902 OFFCURVE",
"210.827 316.719 CURVE SMOOTH",
"214.193 416.148 OFFCURVE",
"217.664 518.968 OFFCURVE",
"214.933 602.685 CURVE SMOOTH",
"213.618 642.459 OFFCURVE",
"215.371 685.127 OFFCURVE",
"217.066 726.395 CURVE SMOOTH",
"217.795 744.237 OFFCURVE",
"218.521 761.865 OFFCURVE",
"218.984 778.979 CURVE SMOOTH",
"219.097 782.581 OFFCURVE",
"222.118 785.292 OFFCURVE",
"225.689 785.321 CURVE",
"229.285 785.221 OFFCURVE",
"232.131 782.22 OFFCURVE",
"232.033 778.625 CURVE SMOOTH",
"231.561 761.452 OFFCURVE",
"230.835 743.755 OFFCURVE",
"230.102 725.86 CURVE SMOOTH",
"228.415 684.833 OFFCURVE",
"226.67 642.409 OFFCURVE",
"227.962 603.108 CURVE SMOOTH",
"230.708 518.954 OFFCURVE",
"227.231 415.922 OFFCURVE",
"223.867 316.279 CURVE SMOOTH",
"220.391 213.539 OFFCURVE",
"216.797 107.303 OFFCURVE",
"219.912 20.2656 CURVE SMOOTH",
"219.924 20.0215 OFFCURVE",
"219.918 19.7852 OFFCURVE",
"219.898 19.5469 CURVE SMOOTH",
"217.975 -7 OFFCURVE",
"212.864 -76 OFFCURVE",
"153.752 -76 CURVE SMOOTH"
);
}
);
width = 300;
}
);
unicode = 0055;
},
{
glyphname = V;
lastChange = "2013-05-16 04:15:41 +0000";
layers = (
{
layerId = "204CD004-05F3-49D2-8673-0D9320CD8B89";
name = Regular;
paths = (
{
closed = 1;
nodes = (
"183.526 -87 OFFCURVE",
"183.361 -87 OFFCURVE",
"183.194 -87 CURVE SMOOTH",
"179.6 -87 OFFCURVE",
"176.906 -83 OFFCURVE",
"177.179 -80 CURVE SMOOTH",
"177.312 -78 OFFCURVE",
"190.385 95.541 OFFCURVE",
"195.113 150.424 CURVE SMOOTH",
"202.759 238.982 OFFCURVE",
"209.623 360.504 OFFCURVE",
"216.266 478.025 CURVE SMOOTH",
"220.125 546.264 OFFCURVE",
"223.758 610.716 OFFCURVE",
"227.269 663.17 CURVE SMOOTH",
"230.046 704.526 OFFCURVE",
"238.485 742.761 OFFCURVE",
"246.378 774.712 CURVE SMOOTH",
"247.24 778.21 OFFCURVE",
"250.795 780.366 OFFCURVE",
"254.264 779.479 CURVE SMOOTH",
"257.763 778.625 OFFCURVE",
"259.902 775.087 OFFCURVE",
"259.035 771.592 CURVE SMOOTH",
"251.287 740.189 OFFCURVE",
"242.992 702.648 OFFCURVE",
"240.287 662.297 CURVE SMOOTH",
"236.781 609.916 OFFCURVE",
"233.142 545.493 OFFCURVE",
"229.29 477.287 CURVE SMOOTH",
"222.64 359.672 OFFCURVE",
"215.768 238.051 OFFCURVE",
"208.107 149.303 CURVE SMOOTH",
"203.382 94.4922 OFFCURVE",
"190.318 -79 OFFCURVE",
"190.186 -81 CURVE SMOOTH",
"189.929 -84 OFFCURVE",
"187.072 -87 OFFCURVE",
"183.691 -87 CURVE SMOOTH"
);
},
{
closed = 1;
nodes = (
"181.062 -87 OFFCURVE",
"178.59 -85 OFFCURVE",
"177.594 -83 CURVE SMOOTH",
"155.557 -25 OFFCURVE",
"135.582 138.037 OFFCURVE",
"119.528 269.06 CURVE SMOOTH",
"111.791 332.221 OFFCURVE",
"105.107 386.766 OFFCURVE",
"99.8291 415.715 CURVE SMOOTH",
"93.2617 451.676 OFFCURVE",
"85.8154 485.744 OFFCURVE",
"78.623 518.697 CURVE SMOOTH",
"59.8799 604.494 OFFCURVE",
"42.1758 685.527 OFFCURVE",
"43.6982 782.458 CURVE SMOOTH",
"43.7578 786.056 OFFCURVE",
"46.749 788.792 OFFCURVE",
"50.3223 788.875 CURVE",
"53.9277 788.82 OFFCURVE",
"56.7988 785.852 OFFCURVE",
"56.7393 782.252 CURVE SMOOTH",
"55.2363 686.834 OFFCURVE",
"72.79 606.515 OFFCURVE",
"91.3672 521.479 CURVE SMOOTH",
"98.5918 488.42 OFFCURVE",
"106.056 454.228 OFFCURVE",
"112.653 418.055 CURVE SMOOTH",
"118.01 388.736 OFFCURVE",
"124.71 334.008 OFFCURVE",
"132.475 270.648 CURVE SMOOTH",
"148.438 140.326 OFFCURVE",
"168.311 -22 OFFCURVE",
"189.773 -78 CURVE SMOOTH",
"191.059 -81 OFFCURVE",
"189.377 -85 OFFCURVE",
"186.014 -86 CURVE SMOOTH",
"185.252 -87 OFFCURVE",
"184.46 -87 OFFCURVE",
"183.686 -87 CURVE SMOOTH"
);
}
);
width = 300;
}
);
unicode = 0056;
},
{
glyphname = W;
lastChange = "2013-05-16 04:15:21 +0000";
layers = (
{
anchors = (
{
name = top;
position = "{150, 500}";
}
);
layerId = "204CD004-05F3-49D2-8673-0D9320CD8B89";
name = Regular;
paths = (
{
closed = 1;
nodes = (
"100.168 -90 OFFCURVE",
"100.07 -90 OFFCURVE",
"99.9766 -90 CURVE",
"96.376 -90 OFFCURVE",
"93.5889 -87 OFFCURVE",
"93.7441 -83 CURVE SMOOTH",
"94.5215 -66 OFFCURVE",
"83.9199 14.4258 OFFCURVE",
"78.252 50.7344 CURVE SMOOTH",
"75.5488 68.0918 OFFCURVE",
"72.8623 83.6113 OFFCURVE",
"70.3252 98.2871 CURVE SMOOTH",
"63.5098 137.615 OFFCURVE",
"57.6348 171.594 OFFCURVE",
"55.3066 219.086 CURVE SMOOTH",
"53.2695 260.748 OFFCURVE",
"49.6699 319.67 OFFCURVE",
"45.8594 382.062 CURVE SMOOTH",
"37.5859 517.62 OFFCURVE",
"27.2998 686.317 OFFCURVE",
"26.9004 777.224 CURVE SMOOTH",
"26.8896 780.82 OFFCURVE",
"29.7949 783.754 OFFCURVE",
"33.3975 783.771 CURVE",
"33.4063 783.771 OFFCURVE",
"33.417 783.771 OFFCURVE",
"33.4258 783.771 CURVE",
"37.0156 783.771 OFFCURVE",
"39.9336 780.866 OFFCURVE",
"39.9473 777.275 CURVE SMOOTH",
"40.334 686.745 OFFCURVE",
"50.6172 518.248 OFFCURVE",
"58.8828 382.857 CURVE SMOOTH",
"62.6934 320.43 OFFCURVE",
"66.293 261.455 OFFCURVE",
"68.3389 219.721 CURVE SMOOTH",
"70.6143 173.023 OFFCURVE",
"76.4365 139.416 OFFCURVE",
"83.1748 100.51 CURVE SMOOTH",
"85.7266 85.7676 OFFCURVE",
"88.4219 70.1816 OFFCURVE",
"91.1416 52.7422 CURVE SMOOTH",
"95.9473 21.9277 OFFCURVE",
"107.654 -64 OFFCURVE",
"106.777 -84 CURVE SMOOTH",
"106.623 -87 OFFCURVE",
"103.729 -90 OFFCURVE",
"100.27 -90 CURVE SMOOTH"
);
},
{
closed = 1;
nodes = (
"184.988 -88 OFFCURVE",
"184.678 -88 OFFCURVE",
"184.354 -88 CURVE SMOOTH",
"180.789 -88 OFFCURVE",
"178.318 -84 OFFCURVE",
"178.843 -81 CURVE SMOOTH",
"184.108 -45 OFFCURVE",
"190.092 -12 OFFCURVE",
"195.883 19.5273 CURVE SMOOTH",
"205.35 71.0293 OFFCURVE",
"214.287 119.668 OFFCURVE",
"219.102 178.568 CURVE SMOOTH",
"224.396 243.109 OFFCURVE",
"230.432 329.254 OFFCURVE",
"236.826 420.453 CURVE SMOOTH",
"246.027 551.618 OFFCURVE",
"255.537 687.255 OFFCURVE",
"264.221 779.386 CURVE SMOOTH",
"264.558 782.965 OFFCURVE",
"267.701 785.675 OFFCURVE",
"271.326 785.267 CURVE SMOOTH",
"274.911 784.93 OFFCURVE",
"277.543 781.747 OFFCURVE",
"277.202 778.167 CURVE SMOOTH",
"268.54 686.185 OFFCURVE",
"259.034 550.635 OFFCURVE",
"249.837 419.537 CURVE SMOOTH",
"243.441 328.301 OFFCURVE",
"237.4 242.129 OFFCURVE",
"232.107 177.506 CURVE SMOOTH",
"227.234 117.955 OFFCURVE",
"218.236 69.002 OFFCURVE",
"208.717 17.1719 CURVE SMOOTH",
"202.945 -14 OFFCURVE",
"196.979 -47 OFFCURVE",
"191.746 -83 CURVE SMOOTH",
"191.271 -86 OFFCURVE",
"188.491 -88 OFFCURVE",
"185.301 -88 CURVE SMOOTH"
);
},
{
closed = 1;
nodes = (
"99.8457 -90 OFFCURVE",
"99.4268 -90 OFFCURVE",
"99.0029 -90 CURVE SMOOTH",
"95.4658 -89 OFFCURVE",
"93.167 -86 OFFCURVE",
"93.8584 -82 CURVE SMOOTH",
"100.485 -49 OFFCURVE",
"112.892 21.5273 OFFCURVE",
"114.55 38.457 CURVE SMOOTH",
"116.61 59.6973 LINE SMOOTH",
"123.531 131.488 OFFCURVE",
"141.926 322.201 OFFCURVE",
"151.334 363.473 CURVE SMOOTH",
"152.124 366.978 OFFCURVE",
"155.63 369.217 OFFCURVE",
"159.132 368.383 CURVE SMOOTH",
"162.646 367.584 OFFCURVE",
"164.842 364.084 OFFCURVE",
"164.041 360.578 CURVE SMOOTH",
"154.827 320.119 OFFCURVE",
"136.492 130.012 OFFCURVE",
"129.597 58.4414 CURVE SMOOTH",
"127.528 37.1738 LINE SMOOTH",
"125.727 18.7813 OFFCURVE",
"112.556 -55 OFFCURVE",
"106.663 -85 CURVE SMOOTH",
"106.043 -88 OFFCURVE",
"103.317 -90 OFFCURVE",
"100.27 -90 CURVE SMOOTH"
);
},
{
closed = 1;
nodes = (
"182.252 -88 OFFCURVE",
"179.531 -86 OFFCURVE",
"178.899 -83 CURVE SMOOTH",
"165.939 -19 OFFCURVE",
"155.719 70.2852 OFFCURVE",
"155.621 120.656 CURVE",
"155.636 128.594 LINE SMOOTH",
"156.047 308.736 OFFCURVE",
"153.083 351.395 OFFCURVE",
"151.281 360.793 CURVE SMOOTH",
"150.604 364.328 OFFCURVE",
"152.92 367.748 OFFCURVE",
"156.454 368.434 CURVE SMOOTH",
"159.977 369.082 OFFCURVE",
"163.417 366.789 OFFCURVE",
"164.092 363.25 CURVE SMOOTH",
"167.446 345.738 OFFCURVE",
"168.994 266.777 OFFCURVE",
"168.679 128.562 CURVE SMOOTH",
"168.664 120.68 LINE SMOOTH",
"168.755 71.0371 OFFCURVE",
"178.865 -17 OFFCURVE",
"191.686 -81 CURVE SMOOTH",
"192.398 -84 OFFCURVE",
"190.121 -87 OFFCURVE",
"186.59 -88 CURVE SMOOTH",
"186.154 -88 OFFCURVE",
"185.714 -88 OFFCURVE",
"185.287 -88 CURVE SMOOTH"
);
}
);
width = 300;
}
);
unicode = 0057;
},
{
glyphname = X;
lastChange = "2013-05-16 04:15:06 +0000";
layers = (
{
layerId = "204CD004-05F3-49D2-8673-0D9320CD8B89";
name = Regular;
paths = (
{
closed = 1;
nodes = (
"90.373 -86 OFFCURVE",
"89.9639 -85 OFFCURVE",
"89.5479 -85 CURVE SMOOTH",
"86.0137 -85 OFFCURVE",
"83.6953 -81 OFFCURVE",
"84.3691 -78 CURVE SMOOTH",
"88.0234 -59 OFFCURVE",
"94.7129 -9 OFFCURVE",
"102.449 47.582 CURVE SMOOTH",
"114.658 137.57 OFFCURVE",
"129.851 249.584 OFFCURVE",
"139.376 286.941 CURVE SMOOTH",
"149.221 325.643 OFFCURVE",
"155.498 365.857 OFFCURVE",
"162.134 408.441 CURVE SMOOTH",
"163.491 417.102 OFFCURVE",
"164.846 425.82 OFFCURVE",
"166.248 434.586 CURVE SMOOTH",
"173.488 479.904 OFFCURVE",
"180.907 536.276 OFFCURVE",
"188.767 595.952 CURVE SMOOTH",
"197.52 662.439 OFFCURVE",
"206.565 731.182 OFFCURVE",
"215.366 783.438 CURVE SMOOTH",
"215.961 786.987 OFFCURVE",
"219.258 789.354 OFFCURVE",
"222.883 788.786 CURVE SMOOTH",
"226.438 788.189 OFFCURVE",
"228.834 784.827 OFFCURVE",
"228.232 781.274 CURVE SMOOTH",
"219.466 729.247 OFFCURVE",
"210.432 660.625 OFFCURVE",
"201.693 594.248 CURVE SMOOTH",
"193.831 534.481 OFFCURVE",
"186.396 478.025 OFFCURVE",
"179.124 432.525 CURVE SMOOTH",
"177.727 423.775 OFFCURVE",
"176.372 415.078 OFFCURVE",
"175.023 406.434 CURVE SMOOTH",
"168.331 363.539 OFFCURVE",
"162.015 323.02 OFFCURVE",
"152.008 283.715 CURVE SMOOTH",
"142.671 247.09 OFFCURVE",
"127.531 135.49 OFFCURVE",
"115.369 45.8242 CURVE SMOOTH",
"107.605 -11 OFFCURVE",
"100.904 -61 OFFCURVE",
"97.1816 -80 CURVE SMOOTH",
"96.585 -83 OFFCURVE",
"93.8535 -86 OFFCURVE",
"90.7803 -86 CURVE SMOOTH"
);
},
{
closed = 1;
nodes = (
"236.942 -81 OFFCURVE",
"234.263 -79 OFFCURVE",
"233.562 -76 CURVE SMOOTH",
"229.117 -57 OFFCURVE",
"225.355 -32 OFFCURVE",
"221.369 -6 CURVE SMOOTH",
"215.686 32.0254 OFFCURVE",
"209.801 70.8477 OFFCURVE",
"201.281 98.2227 CURVE SMOOTH",
"194.703 119.352 OFFCURVE",
"170.702 257.238 OFFCURVE",
"145.281 403.228 CURVE SMOOTH",
"117.071 565.276 OFFCURVE",
"85.0947 748.947 OFFCURVE",
"76.0439 776.757 CURVE SMOOTH",
"74.9287 780.183 OFFCURVE",
"76.8008 783.868 OFFCURVE",
"80.2324 784.983 CURVE SMOOTH",
"83.6445 786.089 OFFCURVE",
"87.3369 784.212 OFFCURVE",
"88.4531 780.794 CURVE SMOOTH",
"97.7881 752.091 OFFCURVE",
"128.464 575.877 OFFCURVE",
"158.134 405.465 CURVE SMOOTH",
"183.471 259.904 OFFCURVE",
"207.408 122.422 OFFCURVE",
"213.738 102.096 CURVE SMOOTH",
"222.551 73.7832 OFFCURVE",
"228.508 34.4629 OFFCURVE",
"234.263 -4 CURVE SMOOTH",
"238.211 -30 OFFCURVE",
"241.936 -54 OFFCURVE",
"246.275 -73 CURVE SMOOTH",
"247.084 -76 OFFCURVE",
"244.892 -80 OFFCURVE",
"241.383 -81 CURVE SMOOTH",
"240.892 -81 OFFCURVE",
"240.395 -81 OFFCURVE",
"239.913 -81 CURVE SMOOTH"
);
}
);
width = 300;
}
);
unicode = 0058;
},
{
glyphname = Y;
lastChange = "2013-05-16 04:14:46 +0000";
layers = (
{
anchors = (
{
name = top;
position = "{150, 500}";
}
);
layerId = "204CD004-05F3-49D2-8673-0D9320CD8B89";
name = Regular;
paths = (
{
closed = 1;
nodes = (
"177.196 -77 OFFCURVE",
"174.321 -74 OFFCURVE",
"174.109 -71 CURVE SMOOTH",
"172.328 -42 OFFCURVE",
"169.771 -12 OFFCURVE",
"167.078 19.2754 CURVE SMOOTH",
"159.278 110.492 OFFCURVE",
"151.209 204.822 OFFCURVE",
"159.577 287.391 CURVE",
"159.888 301.41 OFFCURVE",
"160.917 344.707 OFFCURVE",
"159.816 352.162 CURVE",
"149.635 374.016 OFFCURVE",
"142.951 418.379 OFFCURVE",
"137.054 457.574 CURVE SMOOTH",
"133.923 478.35 OFFCURVE",
"130.972 497.98 OFFCURVE",
"128.13 509.04 CURVE SMOOTH",
"122 532.871 OFFCURVE",
"115.573 555.071 OFFCURVE",
"109.356 576.542 CURVE SMOOTH",
"90.2979 642.373 OFFCURVE",
"73.834 699.23 OFFCURVE",
"72.8496 774.993 CURVE SMOOTH",
"72.8047 778.592 OFFCURVE",
"75.6865 781.551 OFFCURVE",
"79.2891 781.601 CURVE SMOOTH",
"79.3145 781.601 OFFCURVE",
"79.3457 781.601 OFFCURVE",
"79.3711 781.601 CURVE SMOOTH",
"82.9336 781.601 OFFCURVE",
"85.8477 778.733 OFFCURVE",
"85.8936 775.159 CURVE SMOOTH",
"86.8555 701.165 OFFCURVE",
"103.088 645.091 OFFCURVE",
"121.887 580.163 CURVE SMOOTH",
"128.13 558.607 OFFCURVE",
"134.587 536.311 OFFCURVE",
"140.762 512.289 CURVE SMOOTH",
"143.768 500.577 OFFCURVE",
"146.635 481.547 OFFCURVE",
"149.952 459.518 CURVE SMOOTH",
"155.503 422.676 OFFCURVE",
"162.406 376.822 OFFCURVE",
"171.936 357.043 CURVE SMOOTH",
"172.146 356.615 OFFCURVE",
"172.302 356.156 OFFCURVE",
"172.416 355.691 CURVE SMOOTH",
"173.426 351.357 OFFCURVE",
"173.81 338.283 OFFCURVE",
"172.587 286.58 CURVE",
"164.309 204.719 OFFCURVE",
"172.318 111.008 OFFCURVE",
"180.067 20.3828 CURVE SMOOTH",
"182.779 -11 OFFCURVE",
"185.328 -41 OFFCURVE",
"187.124 -70 CURVE SMOOTH",
"187.346 -73 OFFCURVE",
"184.613 -76 OFFCURVE",
"181.023 -77 CURVE SMOOTH",
"180.885 -77 OFFCURVE",
"180.751 -77 OFFCURVE",
"180.611 -77 CURVE SMOOTH"
);
},
{
closed = 1;
nodes = (
"164.91 347.688 OFFCURVE",
"163.752 347.99 OFFCURVE",
"162.695 348.627 CURVE SMOOTH",
"159.615 350.484 OFFCURVE",
"158.618 354.488 OFFCURVE",
"160.482 357.58 CURVE",
"164.549 366.227 OFFCURVE",
"184.748 479.922 OFFCURVE",
"186.19 490.725 CURVE SMOOTH",
"194.106 550.434 OFFCURVE",
"195.842 561.244 OFFCURVE",
"204.182 613.191 CURVE SMOOTH",
"206.287 626.302 LINE SMOOTH",
"209.836 648.472 OFFCURVE",
"210.977 668.619 OFFCURVE",
"212.075 688.111 CURVE SMOOTH",
"213.644 715.787 OFFCURVE",
"215.262 744.412 OFFCURVE",
"223.727 779.24 CURVE SMOOTH",
"224.581 782.737 OFFCURVE",
"228.109 784.897 OFFCURVE",
"231.605 784.037 CURVE SMOOTH",
"235.1 783.183 OFFCURVE",
"237.251 779.662 OFFCURVE",
"236.398 776.158 CURVE SMOOTH",
"228.215 742.482 OFFCURVE",
"226.698 715.716 OFFCURVE",
"225.098 687.371 CURVE SMOOTH",
"223.98 667.555 OFFCURVE",
"222.822 647.071 OFFCURVE",
"219.163 624.238 CURVE SMOOTH",
"217.062 611.123 LINE SMOOTH",
"208.746 559.317 OFFCURVE",
"207.016 548.546 OFFCURVE",
"199.117 489.004 CURVE SMOOTH",
"198.955 487.812 OFFCURVE",
"177.662 360.822 OFFCURVE",
"171.65 350.84 CURVE SMOOTH",
"170.428 348.81 OFFCURVE",
"168.267 347.688 OFFCURVE",
"166.06 347.688 CURVE SMOOTH"
);
}
);
width = 300;
}
);
unicode = 0059;
},
{
glyphname = Z;
lastChange = "2013-05-16 03:38:20 +0000";
layers = (
{
anchors = (
{
name = top;
position = "{150, 500}";
}
);
layerId = "204CD004-05F3-49D2-8673-0D9320CD8B89";
name = Regular;
paths = (
{
closed = 1;
nodes = (
"97.8428 -86 OFFCURVE",
"96.2578 -85 OFFCURVE",
"95.0508 -84 CURVE SMOOTH",
"93.6592 -83 OFFCURVE",
"92.8965 -81 OFFCURVE",
"92.959 -79 CURVE SMOOTH",
"101.049 168.246 OFFCURVE",
"144.219 521.828 OFFCURVE",
"182.316 773.081 CURVE",
"172.949 773.685 OFFCURVE",
"162.185 772.706 OFFCURVE",
"150.932 771.662 CURVE SMOOTH",
"139.305 770.592 OFFCURVE",
"127.295 769.478 OFFCURVE",
"115.779 770.097 CURVE SMOOTH",
"112.18 770.289 OFFCURVE",
"109.428 773.361 OFFCURVE",
"109.627 776.964 CURVE SMOOTH",
"109.818 780.552 OFFCURVE",
"112.841 783.507 OFFCURVE",
"116.494 783.114 CURVE",
"127.05 782.545 OFFCURVE",
"138.571 783.608 OFFCURVE",
"149.723 784.657 CURVE SMOOTH",
"164.504 786.021 OFFCURVE",
"178.469 787.329 OFFCURVE",
"190.875 785.203 CURVE SMOOTH",
"194.386 784.606 OFFCURVE",
"196.756 781.312 OFFCURVE",
"196.227 777.796 CURVE SMOOTH",
"158.32 529.011 OFFCURVE",
"115.003 176.496 OFFCURVE",
"106.248 -72 CURVE",
"119.498 -71 OFFCURVE",
"131.4 -71 OFFCURVE",
"142.973 -71 CURVE SMOOTH",
"158.645 -71 OFFCURVE",
"173.459 -71 OFFCURVE",
"188.457 -68 CURVE SMOOTH",
"191.951 -67 OFFCURVE",
"195.438 -70 OFFCURVE",
"196.168 -73 CURVE SMOOTH",
"196.894 -77 OFFCURVE",
"194.626 -80 OFFCURVE",
"191.104 -81 CURVE SMOOTH",
"174.73 -84 OFFCURVE",
"159.252 -84 OFFCURVE",
"142.871 -84 CURVE SMOOTH",
"129.542 -84 OFFCURVE",
"115.763 -84 OFFCURVE",
"100.195 -85 CURVE SMOOTH",
"99.9531 -86 OFFCURVE",
"99.7207 -86 OFFCURVE",
"99.4746 -86 CURVE SMOOTH"
);
}
);
width = 300;
}
);
unicode = 005A;
},
